<svg xmlns="http://www.w3.org/2000/svg" xmlns:xlink="http://www.w3.org/1999/xlink" width="48" height="48" viewBox="0 0 48 48">
  <defs>
    <clipPath id="clip-path">
      <rect id="Rectangle_63" data-name="Rectangle 63" width="48" height="48" transform="translate(886 2505)"/>
    </clipPath>
  </defs>
  <g id="Mask_Group_14" data-name="Mask Group 14" transform="translate(-886 -2505)" clip-path="url(#clip-path)">
    <g id="oily" transform="translate(883.517 2502.517)">
      <path id="Path_172" data-name="Path 172" d="M49.655,19.034H39.724a13.241,13.241,0,0,0-26.483,0H3.31a.83.83,0,0,0-.828.828V46.345a.83.83,0,0,0,.828.828H49.655a.83.83,0,0,0,.828-.828V19.862A.83.83,0,0,0,49.655,19.034ZM4.138,24h10.08a13.226,13.226,0,0,0,24.53,0h10.08V42.207H4.138Zm44.69-3.31v1.655H39.286a13.606,13.606,0,0,0,.323-1.655ZM26.483,7.448A11.586,11.586,0,1,1,14.9,19.034,11.6,11.6,0,0,1,26.483,7.448ZM13.357,20.69a13.606,13.606,0,0,0,.323,1.655H4.138V20.69Zm35.47,24.828H4.138V43.862h44.69Z"/>
      <path id="Path_173" data-name="Path 173" d="M10.759,35.586a.83.83,0,0,0-.828-.828H8.276a.828.828,0,0,0,0,1.655H9.931A.83.83,0,0,0,10.759,35.586Z"/>
      <path id="Path_174" data-name="Path 174" d="M15.724,35.586a.83.83,0,0,0-.828-.828H13.241a.828.828,0,0,0,0,1.655H14.9A.83.83,0,0,0,15.724,35.586Z"/>
      <path id="Path_175" data-name="Path 175" d="M20.69,35.586a.83.83,0,0,0-.828-.828H18.207a.828.828,0,1,0,0,1.655h1.655A.83.83,0,0,0,20.69,35.586Z"/>
      <path id="Path_176" data-name="Path 176" d="M25.655,35.586a.83.83,0,0,0-.828-.828H23.172a.828.828,0,0,0,0,1.655h1.655A.83.83,0,0,0,25.655,35.586Z"/>
      <path id="Path_177" data-name="Path 177" d="M30.621,35.586a.83.83,0,0,0-.828-.828H28.138a.828.828,0,0,0,0,1.655h1.655A.83.83,0,0,0,30.621,35.586Z"/>
      <path id="Path_178" data-name="Path 178" d="M35.586,35.586a.83.83,0,0,0-.828-.828H33.1a.828.828,0,1,0,0,1.655h1.655A.83.83,0,0,0,35.586,35.586Z"/>
      <path id="Path_179" data-name="Path 179" d="M40.552,35.586a.83.83,0,0,0-.828-.828H38.069a.828.828,0,1,0,0,1.655h1.655A.83.83,0,0,0,40.552,35.586Z"/>
      <path id="Path_180" data-name="Path 180" d="M44.69,34.759H43.034a.828.828,0,0,0,0,1.655H44.69a.828.828,0,1,0,0-1.655Z"/>
      <path id="Path_181" data-name="Path 181" d="M12.414,38.069H10.759a.828.828,0,0,0,0,1.655h1.655a.828.828,0,0,0,0-1.655Z"/>
      <path id="Path_182" data-name="Path 182" d="M17.379,38.069H15.724a.828.828,0,0,0,0,1.655h1.655a.828.828,0,0,0,0-1.655Z"/>
      <path id="Path_183" data-name="Path 183" d="M22.345,38.069H20.69a.828.828,0,0,0,0,1.655h1.655a.828.828,0,1,0,0-1.655Z"/>
      <path id="Path_184" data-name="Path 184" d="M27.31,38.069H25.655a.828.828,0,0,0,0,1.655H27.31a.828.828,0,0,0,0-1.655Z"/>
      <path id="Path_185" data-name="Path 185" d="M32.276,38.069H30.621a.828.828,0,0,0,0,1.655h1.655a.828.828,0,0,0,0-1.655Z"/>
      <path id="Path_186" data-name="Path 186" d="M37.241,38.069H35.586a.828.828,0,0,0,0,1.655h1.655a.828.828,0,0,0,0-1.655Z"/>
      <path id="Path_187" data-name="Path 187" d="M42.207,38.069H40.552a.828.828,0,1,0,0,1.655h1.655a.828.828,0,1,0,0-1.655Z"/>
      <path id="Path_188" data-name="Path 188" d="M26.483,28.966a9.931,9.931,0,1,0-9.931-9.931A9.939,9.939,0,0,0,26.483,28.966Zm0-18.207a8.276,8.276,0,1,1-8.276,8.276A8.29,8.29,0,0,1,26.483,10.759Z"/>
      <path id="Path_189" data-name="Path 189" d="M26.483,24.828a4.56,4.56,0,0,0,4.552-4.552c0-3.575-3.873-6.72-4.03-6.852a.833.833,0,0,0-1.034,0c-.166.132-4.03,3.277-4.03,6.852a4.56,4.56,0,0,0,4.552,4.552Zm0-9.658c1.117,1.051,2.9,3.137,2.9,5.106a2.9,2.9,0,1,1-5.793,0C23.586,18.166,25.531,16.072,26.483,15.17Z"/>
    </g>
  </g>
</svg>
