<svg xmlns="http://www.w3.org/2000/svg" width="20" height="20" viewBox="0 0 20 20">
  <g id="Layer_2" data-name="Layer 2" transform="translate(-0.355 -0.355)">
    <g id="Layer_1" data-name="Layer 1">
      <g id="Question_mark" data-name="Question mark">
        <g id="BG">
          <rect id="Rectangle_232" data-name="Rectangle 232" width="20" height="20" rx="10" transform="translate(0.355 0.355)" fill="#9e9e9e"/>
        </g>
        <path id="Path_348" data-name="Path 348" d="M167.67,125.255a2.584,2.584,0,0,1,.436-1.376,3.356,3.356,0,0,1,1.272-1.154,4.006,4.006,0,0,1,1.951-.457,4.166,4.166,0,0,1,1.829.382,2.966,2.966,0,0,1,1.226,1.04,2.551,2.551,0,0,1,.432,1.429,2.209,2.209,0,0,1-.247,1.065,3.255,3.255,0,0,1-.586.79q-.339.332-1.218,1.118a4.973,4.973,0,0,0-.389.389,1.58,1.58,0,0,0-.218.307,1.493,1.493,0,0,0-.111.279q-.039.139-.118.489a.8.8,0,0,1-.85.743.869.869,0,0,1-.625-.243.953.953,0,0,1-.254-.722,2.535,2.535,0,0,1,.679-1.812,11.288,11.288,0,0,1,.829-.79q.457-.4.661-.6a2.047,2.047,0,0,0,.343-.454,1.1,1.1,0,0,0,.139-.543,1.263,1.263,0,0,0-.425-.965,1.553,1.553,0,0,0-1.1-.393,1.518,1.518,0,0,0-1.158.4,3.163,3.163,0,0,0-.629,1.168q-.243.808-.922.808a.906.906,0,0,1-.675-.282A.864.864,0,0,1,167.67,125.255Zm3.487,7.832a1.124,1.124,0,0,1-.761-.282.989.989,0,0,1-.325-.79,1.017,1.017,0,0,1,.314-.757,1.062,1.062,0,0,1,.772-.307,1.05,1.05,0,0,1,1.065,1.065,1,1,0,0,1-.322.786,1.085,1.085,0,0,1-.743.286Z" transform="translate(-160.888 -117.322)" fill="#fff"/>
      </g>
    </g>
  </g>
</svg>
