<svg xmlns="http://www.w3.org/2000/svg" xmlns:xlink="http://www.w3.org/1999/xlink" width="74" height="74" viewBox="0 0 74 74">
  <defs>
    <clipPath id="clip-path">
      <rect id="Rectangle_57" data-name="Rectangle 57" width="74" height="74" transform="translate(710 2111)" fill="#13a89e"/>
    </clipPath>
  </defs>
  <g id="Mask_Group_11" data-name="Mask Group 11" transform="translate(-710 -2111)" clip-path="url(#clip-path)">
    <g id="refresh" transform="translate(710.001 2111.001)">
      <path id="Path_137" data-name="Path 137" d="M50.874,12.333H44.707a1.542,1.542,0,0,1,0-3.083h4.625V4.625a1.542,1.542,0,1,1,3.083,0v6.167A1.542,1.542,0,0,1,50.874,12.333Z" fill="#13a89e"/>
      <path id="Path_138" data-name="Path 138" d="M23.125,15.386a1.507,1.507,0,0,1-.166-.009,1.543,1.543,0,0,1-1.369-1.7A15.286,15.286,0,0,1,36.814,0,15.126,15.126,0,0,1,46.36,3.339a14.5,14.5,0,0,1,4.56,6.117,1.541,1.541,0,1,1-2.867,1.128A11.462,11.462,0,0,0,44.439,5.75a12.068,12.068,0,0,0-7.625-2.667A12.207,12.207,0,0,0,24.657,14.007a1.54,1.54,0,0,1-1.532,1.378Z" fill="#13a89e"/>
      <path id="Path_139" data-name="Path 139" d="M37.184,30.833a15.126,15.126,0,0,1-9.546-3.339,14.5,14.5,0,0,1-4.56-6.117,1.541,1.541,0,0,1,2.867-1.128,11.462,11.462,0,0,0,3.614,4.835,12.068,12.068,0,0,0,7.625,2.667A12.207,12.207,0,0,0,49.342,16.825a1.523,1.523,0,0,1,1.7-1.369,1.543,1.543,0,0,1,1.369,1.7A15.281,15.281,0,0,1,37.184,30.833Z" fill="#13a89e"/>
      <path id="Path_140" data-name="Path 140" d="M23.125,27.749a1.542,1.542,0,0,1-1.542-1.542V20.041A1.542,1.542,0,0,1,23.125,18.5h6.167a1.542,1.542,0,1,1,0,3.083H24.666v4.625A1.542,1.542,0,0,1,23.125,27.749Z" fill="#13a89e"/>
      <path id="Path_141" data-name="Path 141" d="M66.29,74H7.708A7.719,7.719,0,0,1,0,66.29V41.559a1.542,1.542,0,0,1,1.976-1.477c11.235,3.311,21.74.395,31.906-2.423,12.8-3.549,26.041-7.221,39.487,2.661A1.529,1.529,0,0,1,74,41.559V66.29A7.719,7.719,0,0,1,66.29,74ZM3.083,43.564V66.29a4.631,4.631,0,0,0,4.625,4.625H66.29a4.631,4.631,0,0,0,4.625-4.625V42.349c-12.022-8.424-23.775-5.164-36.21-1.724C24.7,43.4,14.38,46.261,3.083,43.564Z" fill="#13a89e"/>
      <path id="Path_142" data-name="Path 142" d="M4.625,67.832A7.666,7.666,0,0,1,.762,66.79a1.544,1.544,0,1,1,1.56-2.664,4.625,4.625,0,1,0,0-8,1.544,1.544,0,0,1-1.56-2.664A7.707,7.707,0,1,1,4.625,67.832Z" fill="#13a89e"/>
      <path id="Path_143" data-name="Path 143" d="M29.291,58.582a4.625,4.625,0,1,1,4.625-4.625A4.631,4.631,0,0,1,29.291,58.582Zm0-6.167a1.542,1.542,0,1,0,1.542,1.542A1.542,1.542,0,0,0,29.291,52.416Z" fill="#13a89e"/>
      <path id="Path_144" data-name="Path 144" d="M70.915,58.582a6.167,6.167,0,1,1,0-12.333A5.841,5.841,0,0,1,73,46.625a1.542,1.542,0,0,1-1.085,2.886,3.074,3.074,0,1,0,0,5.809A1.542,1.542,0,0,1,73,58.206a5.841,5.841,0,0,1-2.084.376Z" fill="#13a89e"/>
      <path id="Path_145" data-name="Path 145" d="M50.874,64.749A4.625,4.625,0,1,1,55.5,60.124,4.631,4.631,0,0,1,50.874,64.749Zm0-6.167a1.542,1.542,0,1,0,1.542,1.542A1.542,1.542,0,0,0,50.874,58.582Z" fill="#13a89e"/>
    </g>
  </g>
</svg>
