<svg xmlns="http://www.w3.org/2000/svg" xmlns:xlink="http://www.w3.org/1999/xlink" width="74" height="74" viewBox="0 0 74 74">
  <defs>
    <clipPath id="clip-path">
      <rect id="Rectangle_58" data-name="Rectangle 58" width="74" height="74" transform="translate(943 2111)" fill="#13a89e"/>
    </clipPath>
  </defs>
  <g id="Mask_Group_10" data-name="Mask Group 10" transform="translate(-943 -2111)" clip-path="url(#clip-path)">
    <g id="hydrated-skin" transform="translate(943 2111)">
      <path id="Path_118" data-name="Path 118" d="M72.767,44.4H1.233a1.233,1.233,0,1,0,0,2.467H72.767a1.233,1.233,0,0,0,0-2.467Z" fill="#13a89e"/>
      <path id="Path_119" data-name="Path 119" d="M72.767,49.333H1.233a1.233,1.233,0,0,0,0,2.467H72.767a1.233,1.233,0,0,0,0-2.467Z" fill="#13a89e"/>
      <circle id="Ellipse_5" data-name="Ellipse 5" cx="1.233" cy="1.233" r="1.233" transform="translate(2.467 54.267)" fill="#13a89e"/>
      <circle id="Ellipse_6" data-name="Ellipse 6" cx="1.233" cy="1.233" r="1.233" transform="translate(9.867 54.267)" fill="#13a89e"/>
      <circle id="Ellipse_7" data-name="Ellipse 7" cx="1.233" cy="1.233" r="1.233" transform="translate(17.267 54.267)" fill="#13a89e"/>
      <circle id="Ellipse_8" data-name="Ellipse 8" cx="1.233" cy="1.233" r="1.233" transform="translate(24.667 54.267)" fill="#13a89e"/>
      <circle id="Ellipse_9" data-name="Ellipse 9" cx="1.233" cy="1.233" r="1.233" transform="translate(32.067 54.267)" fill="#13a89e"/>
      <circle id="Ellipse_10" data-name="Ellipse 10" cx="1.233" cy="1.233" r="1.233" transform="translate(39.467 54.267)" fill="#13a89e"/>
      <circle id="Ellipse_11" data-name="Ellipse 11" cx="1.233" cy="1.233" r="1.233" transform="translate(46.867 54.267)" fill="#13a89e"/>
      <circle id="Ellipse_12" data-name="Ellipse 12" cx="1.233" cy="1.233" r="1.233" transform="translate(54.267 54.267)" fill="#13a89e"/>
      <circle id="Ellipse_13" data-name="Ellipse 13" cx="1.233" cy="1.233" r="1.233" transform="translate(61.667 54.267)" fill="#13a89e"/>
      <circle id="Ellipse_14" data-name="Ellipse 14" cx="1.233" cy="1.233" r="1.233" transform="translate(69.067 54.267)" fill="#13a89e"/>
      <path id="Path_120" data-name="Path 120" d="M37,0a3.678,3.678,0,0,0-3.149,1.75C29.5,8.791,22.2,21.46,22.2,27.234a14.8,14.8,0,0,0,29.6,0c0-5.774-7.3-18.443-11.651-25.484A3.678,3.678,0,0,0,37,0ZM49.333,27.234a12.333,12.333,0,1,1-24.667,0c0-3.769,4.112-12.58,11.283-24.187a1.241,1.241,0,0,1,2.1,0C45.221,14.65,49.333,23.465,49.333,27.234Z" fill="#13a89e"/>
      <path id="Path_121" data-name="Path 121" d="M35.767,35.767A1.233,1.233,0,0,0,37,37a9.827,9.827,0,0,0,9.867-9.766,1.233,1.233,0,0,0-2.467,0,7.358,7.358,0,0,1-7.4,7.3A1.233,1.233,0,0,0,35.767,35.767Z" fill="#13a89e"/>
      <path id="Path_122" data-name="Path 122" d="M59.2,4.933a1.233,1.233,0,0,0-2.467,0V7.4a1.233,1.233,0,0,0,2.467,0Z" fill="#13a89e"/>
      <path id="Path_123" data-name="Path 123" d="M57.967,16.033A1.233,1.233,0,0,0,59.2,14.8V12.333a1.233,1.233,0,0,0-2.467,0V14.8A1.233,1.233,0,0,0,57.967,16.033Z" fill="#13a89e"/>
      <path id="Path_124" data-name="Path 124" d="M55.5,8.633H53.033a1.233,1.233,0,0,0,0,2.467H55.5a1.233,1.233,0,0,0,0-2.467Z" fill="#13a89e"/>
      <path id="Path_125" data-name="Path 125" d="M60.433,11.1H62.9a1.233,1.233,0,1,0,0-2.467H60.433a1.233,1.233,0,1,0,0,2.467Z" fill="#13a89e"/>
      <path id="Path_126" data-name="Path 126" d="M67.833,22.2a1.233,1.233,0,0,0-2.467,0v2.467a1.233,1.233,0,1,0,2.467,0Z" fill="#13a89e"/>
      <path id="Path_127" data-name="Path 127" d="M66.6,33.3a1.233,1.233,0,0,0,1.233-1.233V29.6a1.233,1.233,0,1,0-2.467,0v2.467A1.233,1.233,0,0,0,66.6,33.3Z" fill="#13a89e"/>
      <path id="Path_128" data-name="Path 128" d="M61.667,28.367h2.467a1.233,1.233,0,0,0,0-2.467H61.667a1.233,1.233,0,1,0,0,2.467Z" fill="#13a89e"/>
      <path id="Path_129" data-name="Path 129" d="M67.833,27.133a1.233,1.233,0,0,0,1.233,1.233h2.467a1.233,1.233,0,0,0,0-2.467H69.067A1.233,1.233,0,0,0,67.833,27.133Z" fill="#13a89e"/>
      <path id="Path_130" data-name="Path 130" d="M13.567,18.5a1.233,1.233,0,0,0-2.467,0v2.467a1.233,1.233,0,0,0,2.467,0Z" fill="#13a89e"/>
      <path id="Path_131" data-name="Path 131" d="M12.333,29.6a1.233,1.233,0,0,0,1.233-1.233V25.9a1.233,1.233,0,1,0-2.467,0v2.467A1.233,1.233,0,0,0,12.333,29.6Z" fill="#13a89e"/>
      <path id="Path_132" data-name="Path 132" d="M9.867,22.2H7.4a1.233,1.233,0,1,0,0,2.467H9.867a1.233,1.233,0,1,0,0-2.467Z" fill="#13a89e"/>
      <path id="Path_133" data-name="Path 133" d="M14.8,24.667h2.467a1.233,1.233,0,0,0,0-2.467H14.8a1.233,1.233,0,1,0,0,2.467Z" fill="#13a89e"/>
      <path id="Path_134" data-name="Path 134" d="M12.333,74A6.323,6.323,0,0,0,18.5,67.546c0-1.827-1.411-4.705-4.193-8.557a2.488,2.488,0,0,0-3.947,0c-2.782,3.852-4.193,6.73-4.193,8.557A6.323,6.323,0,0,0,12.333,74Zm-.025-13.567c2.3,3.182,3.725,5.906,3.725,7.113a3.857,3.857,0,0,1-3.7,3.987,3.857,3.857,0,0,1-3.7-3.987C8.633,66.34,10.06,63.615,12.309,60.433Z" fill="#13a89e"/>
      <path id="Path_135" data-name="Path 135" d="M37,74a6.323,6.323,0,0,0,6.167-6.454c0-1.827-1.411-4.705-4.193-8.557a2.488,2.488,0,0,0-3.947,0c-2.781,3.852-4.193,6.73-4.193,8.557A6.323,6.323,0,0,0,37,74Zm-.025-13.567c2.3,3.182,3.725,5.906,3.725,7.113a3.71,3.71,0,1,1-7.4,0C33.3,66.34,34.727,63.615,36.975,60.433Z" fill="#13a89e"/>
      <path id="Path_136" data-name="Path 136" d="M59.693,58.989c-2.781,3.852-4.193,6.73-4.193,8.557a6.173,6.173,0,1,0,12.333,0c0-1.827-1.411-4.705-4.193-8.557a2.488,2.488,0,0,0-3.947,0Zm5.673,8.557a3.71,3.71,0,1,1-7.4,0c0-1.206,1.427-3.931,3.675-7.113C63.94,63.615,65.367,66.34,65.367,67.546Z" fill="#13a89e"/>
    </g>
  </g>
</svg>
