<svg xmlns="http://www.w3.org/2000/svg" width="37.446" height="24.105" viewBox="0 0 37.446 24.105">
  <g id="view" transform="translate(0 -82.176)">
    <g id="Group_349" data-name="Group 349" transform="translate(12.697 88.202)">
      <g id="Group_348" data-name="Group 348" transform="translate(0 0)">
        <path id="Path_216" data-name="Path 216" d="M162.442,156.416a6.026,6.026,0,1,0,6.026,6.026A6.031,6.031,0,0,0,162.442,156.416Zm-.457,4.239a1.384,1.384,0,0,0-1.371,1.371h-1.995a3.406,3.406,0,0,1,3.366-3.366Z" transform="translate(-156.416 -156.416)"/>
      </g>
    </g>
    <g id="Group_351" data-name="Group 351" transform="translate(0 82.176)">
      <g id="Group_350" data-name="Group 350" transform="translate(0 0)">
        <path id="Path_217" data-name="Path 217" d="M37.009,92.982C34.973,90.446,27.7,82.176,18.723,82.176S2.473,90.446.436,92.982a2,2,0,0,0,0,2.494c2.036,2.535,9.309,10.806,18.286,10.806s16.25-8.27,18.286-10.806A2,2,0,0,0,37.009,92.982Zm-18.286,9.974a8.728,8.728,0,1,1,8.728-8.728A8.727,8.727,0,0,1,18.723,102.956Z" transform="translate(0 -82.176)"/>
      </g>
    </g>
  </g>
</svg>
