<svg xmlns="http://www.w3.org/2000/svg" xmlns:xlink="http://www.w3.org/1999/xlink" width="99" height="99" viewBox="0 0 99 99">
  <defs>
    <clipPath id="clip-path">
      <rect id="Rectangle_163" data-name="Rectangle 163" width="99" height="99" transform="translate(1176 6203)" fill="#fff"/>
    </clipPath>
  </defs>
  <g id="Mask_Group_31" data-name="Mask Group 31" transform="translate(-1176 -6203)" clip-path="url(#clip-path)">
    <g id="eye-bags" transform="translate(1176 6203)">
      <path id="Path_297" data-name="Path 297" d="M12.985,66.816c-.234-.9-.438-1.829-.606-2.749a1.461,1.461,0,1,0-2.874.525c.181.989.4,1.984.652,2.957a1.461,1.461,0,1,0,2.828-.732Z" fill="#fff"/>
      <path id="Path_298" data-name="Path 298" d="M43.423,95.3a38.812,38.812,0,0,1-5.31-1.4,1.461,1.461,0,1,0-.943,2.765,41.716,41.716,0,0,0,5.712,1.505,1.461,1.461,0,0,0,.542-2.871Z" fill="#fff"/>
      <path id="Path_299" data-name="Path 299" d="M74.552,87.824a39.146,39.146,0,0,1-4.568,3.054,1.461,1.461,0,1,0,1.449,2.537,42.116,42.116,0,0,0,4.91-3.283,1.461,1.461,0,0,0-1.791-2.309Z" fill="#fff"/>
      <path id="Path_300" data-name="Path 300" d="M20.343,81.44a1.461,1.461,0,0,0-2.275,1.833A42.276,42.276,0,0,0,22.085,87.6a1.461,1.461,0,0,0,2-2.133A39.356,39.356,0,0,1,20.343,81.44Z" fill="#fff"/>
      <path id="Path_301" data-name="Path 301" d="M14.736,72.023a1.461,1.461,0,0,0-2.7,1.126A41.919,41.919,0,0,0,14.7,78.425a1.461,1.461,0,0,0,2.51-1.495,39.028,39.028,0,0,1-2.47-4.907Z" fill="#fff"/>
      <path id="Path_302" data-name="Path 302" d="M65.032,93.258a38.807,38.807,0,0,1-5.24,1.655,1.461,1.461,0,1,0,.679,2.842,41.73,41.73,0,0,0,5.636-1.78,1.461,1.461,0,1,0-1.076-2.717Z" fill="#fff"/>
      <path id="Path_303" data-name="Path 303" d="M33.054,91.763a39.111,39.111,0,0,1-4.708-2.831,1.461,1.461,0,1,0-1.678,2.391,42.018,42.018,0,0,0,5.06,3.044,1.461,1.461,0,0,0,1.325-2.6Z" fill="#fff"/>
      <path id="Path_304" data-name="Path 304" d="M54.373,95.808a39.8,39.8,0,0,1-5.494.129,1.461,1.461,0,0,0-.134,2.919c.647.03,1.3.045,1.953.045,1.315,0,2.643-.062,3.947-.184a1.461,1.461,0,1,0-.272-2.909Z" fill="#fff"/>
      <path id="Path_305" data-name="Path 305" d="M89.207,69.415a1.461,1.461,0,0,0-1.871.876A38.858,38.858,0,0,1,85.1,75.309a1.461,1.461,0,1,0,2.579,1.373,41.815,41.815,0,0,0,2.4-5.4,1.461,1.461,0,0,0-.876-1.871Z" fill="#fff"/>
      <path id="Path_306" data-name="Path 306" d="M84.229,79.642a1.461,1.461,0,0,0-2.041.319,39.3,39.3,0,0,1-3.541,4.2,1.461,1.461,0,1,0,2.1,2.035,42.2,42.2,0,0,0,3.806-4.513A1.461,1.461,0,0,0,84.229,79.642Z" fill="#fff"/>
      <path id="Path_307" data-name="Path 307" d="M91.123,58.2a1.462,1.462,0,0,0-1.552,1.364,39.107,39.107,0,0,1-.737,5.443,1.461,1.461,0,1,0,2.86.6,42.019,42.019,0,0,0,.792-5.851A1.461,1.461,0,0,0,91.123,58.2Z" fill="#fff"/>
      <path id="Path_308" data-name="Path 308" d="M91.114,49.545a1.461,1.461,0,0,0-1.461,1.461v2.922a1.461,1.461,0,1,0,2.922,0V51.006A1.461,1.461,0,0,0,91.114,49.545Z" fill="#fff"/>
      <path id="Path_309" data-name="Path 309" d="M48.952,60.06a9.3,9.3,0,1,0-1.09-18.533,5.767,5.767,0,0,0-7.97,7.14,9.295,9.295,0,0,0,9.06,11.393Zm6.378-9.3a6.378,6.378,0,0,1-12.668,1.059,5.764,5.764,0,0,0,8.031-7.194A6.389,6.389,0,0,1,55.331,50.76ZM45.314,43.853A2.846,2.846,0,1,1,42.468,46.7,2.849,2.849,0,0,1,45.314,43.853Z" fill="#fff"/>
      <path id="Path_310" data-name="Path 310" d="M79.6,65.3a11.262,11.262,0,0,0-2.945-5.949l3.81-2.933a12,12,0,0,1,2.773,4.492A1.461,1.461,0,1,0,86,59.96a14.939,14.939,0,0,0-3.207-5.34L84.77,53.1a3.355,3.355,0,0,0,.094-5.242q-1.613-1.337-3.307-2.527a13.43,13.43,0,0,0,3.183-3.089l5.479,3.53A1.461,1.461,0,1,0,91.8,43.315l-5.594-3.6A13.47,13.47,0,0,0,87,37.376l.3-1.266a1.461,1.461,0,1,0-2.842-.676l-.3,1.266a10.548,10.548,0,0,1-.443,1.4L81.909,36.94q-2.19-1.411-4.481-2.608a12.892,12.892,0,0,0,.112-2.678l-.081-1.263a1.461,1.461,0,1,0-2.916.188l.081,1.263a10,10,0,0,1,.008,1.125,57.44,57.44,0,0,0-7.767-2.882,14.608,14.608,0,0,0-.091-2.5l-.122-.977a1.461,1.461,0,1,0-2.9.361l.122.977a11.7,11.7,0,0,1,.087,1.374A57.708,57.708,0,0,0,54.305,27.9c-.018-.5-.056-1-.117-1.5l-.092-.745A1.461,1.461,0,0,0,51.2,26l.092.745c.042.346.07.694.087,1.041A57.424,57.424,0,0,0,29.386,31.9L10.86,39.321a1.461,1.461,0,1,0,1.086,2.712l18.526-7.422a54.5,54.5,0,0,1,20.763-3.9,14.914,14.914,0,0,1-1.771,5.176,52.081,52.081,0,0,0-25.522,7.907L10.648,52.106a3.145,3.145,0,0,0,.467,5.573l5.236,2.163,7.89,4.8a1.461,1.461,0,0,0,1.519-2.5L21.412,59.5l-.342-1.446a15.31,15.31,0,0,1,.378-8.386l.369-1.1,3.675-2.3a49.408,49.408,0,0,1,10.2-4.857A16.228,16.228,0,1,0,64.92,53.647a1.461,1.461,0,1,0-2.876-.517,13.306,13.306,0,1,1-20.7-13.285,49.122,49.122,0,0,1,13.6-.97,13.272,13.272,0,0,1,6.924,8.642,1.461,1.461,0,0,0,2.834-.71,16.173,16.173,0,0,0-3.929-7.182A49.169,49.169,0,0,1,83,50.1a.434.434,0,0,1-.012.678l-13.2,10.163A37.358,37.358,0,0,1,31.216,65.2a1.461,1.461,0,0,0-1.235,2.648,40.283,40.283,0,0,0,21.359,3.537c.127-.014.253-.029.379-.044a5,5,0,0,1-.233,2.8A1.461,1.461,0,1,0,54.208,75.2a7.941,7.941,0,0,0,.4-4.3A40.237,40.237,0,0,0,60.2,69.4a7.6,7.6,0,0,1,.339,3.414,1.461,1.461,0,1,0,2.9.378,10.527,10.527,0,0,0-.508-4.852A40.277,40.277,0,0,0,67.2,66.191a7.37,7.37,0,0,1,1.943,4.64A1.461,1.461,0,0,0,70.6,72.222l.071,0a1.461,1.461,0,0,0,1.39-1.529A10.294,10.294,0,0,0,69.7,64.615q.952-.65,1.87-1.354l2.752-2.119a8.337,8.337,0,0,1,2.393,4.619A1.461,1.461,0,1,0,79.6,65.3ZM17.966,57.4l-.192-.117a1.445,1.445,0,0,0-.2-.1l-5.341-2.206a.223.223,0,0,1-.034-.4l5.909-3.7a18.217,18.217,0,0,0-.14,6.516ZM80.326,39.4l1.954,1.259a10.524,10.524,0,0,1-3.416,2.9q-2.208-1.359-4.517-2.48a13.17,13.17,0,0,0,2.316-3.842q1.865,1.005,3.663,2.161Zm-6.284-3.483a10.193,10.193,0,0,1-2.515,3.895,52,52,0,0,0-7.1-2.359,14.423,14.423,0,0,0,2-4.448,54.494,54.494,0,0,1,7.617,2.913ZM63.6,32.238a11.533,11.533,0,0,1-2.3,4.516,52.085,52.085,0,0,0-8.556-.9,17.919,17.919,0,0,0,1.419-5.039A54.771,54.771,0,0,1,63.6,32.238Z" fill="#fff"/>
      <path id="Path_311" data-name="Path 311" d="M98.535,24.12A61.681,61.681,0,0,0,24.919,5.288L2.835,14.961A4.73,4.73,0,0,0,.45,21.3l2.5,5.332a4.708,4.708,0,0,0,4.268,2.726,4.765,4.765,0,0,0,1.609-.281l26.5-9.5A64.877,64.877,0,0,1,63.6,16.137a1.461,1.461,0,1,0,.3-2.907,67.807,67.807,0,0,0-29.546,3.6l-26.5,9.5A1.8,1.8,0,0,1,5.6,25.392L3.1,20.06a1.808,1.808,0,0,1,.912-2.423L26.092,7.965A58.758,58.758,0,0,1,94.207,23.433l-7.372-3.627a67.422,67.422,0,0,0-16.608-5.625,1.461,1.461,0,0,0-.57,2.866,64.49,64.49,0,0,1,15.887,5.381L95.795,27.47a2.222,2.222,0,0,0,2.74-3.351Z" fill="#fff"/>
      <path id="Path_312" data-name="Path 312" d="M7.476,82.526a1.461,1.461,0,0,0-2.006,0L2.312,85.508a1.461,1.461,0,0,0,2.006,2.125l.695-.656v4.838a1.461,1.461,0,0,0,2.922,0V86.977l.695.656a1.461,1.461,0,1,0,2.005-2.125Z" fill="#fff"/>
      <path id="Path_313" data-name="Path 313" d="M35.745,76.346a1.461,1.461,0,0,0-2.028.393L31.01,80.75l-.209-.933a1.461,1.461,0,1,0-2.851.638l.949,4.239a1.461,1.461,0,0,0,1.424,1.142,1.481,1.481,0,0,0,.238-.019l4.286-.7a1.461,1.461,0,0,0-.473-2.883l-.943.155,2.707-4.01a1.461,1.461,0,0,0-.394-2.028Z" fill="#fff"/>
      <path id="Path_314" data-name="Path 314" d="M70.232,84.695l.95-4.239a1.461,1.461,0,0,0-2.851-.639l-.209.933-2.707-4.01a1.461,1.461,0,1,0-2.421,1.635l2.707,4.01-.943-.155a1.461,1.461,0,0,0-.474,2.883l4.286.7a1.482,1.482,0,0,0,.239.019,1.461,1.461,0,0,0,1.424-1.142Z" fill="#fff"/>
    </g>
  </g>
</svg>
