<svg xmlns="http://www.w3.org/2000/svg" width="23.287" height="22.977" viewBox="0 0 23.287 22.977">
  <g id="handshake" transform="translate(0.001 -0.5)">
    <path id="Path_14" data-name="Path 14" d="M23.192,104.866l-3.9-5.063a.457.457,0,0,0-.607-.107l-2.516,1.6H12.889a.452.452,0,0,0-.126.021l-2.545.733-2.641-.722L5.012,99.7a.456.456,0,0,0-.6.1L.1,105.135a.457.457,0,0,0,.058.633l2.26,1.945,2.027,2.732a1.612,1.612,0,0,0,1.014,2.708,1.624,1.624,0,0,0-.019.247,1.614,1.614,0,0,0,1.614,1.614h.017c0,.011,0,.022,0,.033a1.614,1.614,0,0,0,1.614,1.614,1.647,1.647,0,0,0,.252-.02,1.614,1.614,0,0,0,2.746.983l.247-.247.1.084a1.613,1.613,0,0,0,2.735-1.185,1.611,1.611,0,0,0,1.638-1.637A1.612,1.612,0,0,0,18.044,113a1.613,1.613,0,0,0,1.379-2.492l1.48-3.1,2.225-1.915a.457.457,0,0,0,.064-.625Zm-18.326-4.18,1.845,1.173L2.7,106.749l-1.608-1.384Zm.26,10.367.557-.557c.017-.017.035-.033.053-.048a.7.7,0,0,1,.38-.154h.012c.02,0,.04,0,.06,0a.7.7,0,0,1,.5.219.718.718,0,0,1-.031.993l-.54.54a.7.7,0,0,1-.991-.991Zm1.433,2.842a.7.7,0,0,1,0-.99l1.08-1.08a.708.708,0,0,1,.8-.138.7.7,0,0,1,.386.723.739.739,0,0,1-.209.422l-1.063,1.062a.7.7,0,0,1-.991,0Zm1.63,1.646a.7.7,0,0,1,0-.99l1.08-1.08a.708.708,0,0,1,.847-.111.7.7,0,0,1,.334.708.74.74,0,0,1-.208.411L9.18,115.541a.7.7,0,0,1-.991,0Zm1.857,1.436a.7.7,0,0,1,0-.991l.557-.557c.017-.017.034-.033.053-.048h0a.7.7,0,0,1,.311-.144h.008l.059-.008h.024l.049,0a.7.7,0,0,1,.5.219.631.631,0,0,1,.045.053.723.723,0,0,1-.079.943l-.537.537a.7.7,0,0,1-.991,0Zm8.518-5.1a.7.7,0,0,1-.991,0,.414.414,0,0,0-.031-.028l-2.936-2.967a.457.457,0,0,0-.649.642l2.968,3h0a.7.7,0,1,1-.991.991l-1.985-2.006a.457.457,0,1,0-.649.642l1.955,1.975a.433.433,0,0,0,.032.036.7.7,0,1,1-.991.991l-1.084-1.095a.457.457,0,0,0-.649.642l1.053,1.064a.409.409,0,0,0,.032.036.7.7,0,1,1-.991.991,1.009,1.009,0,0,0-.1-.083c-.03-.023-.038-.039-.023-.075s.038-.07.053-.107.03-.084.043-.126a1.646,1.646,0,0,0,.059-.7,1.6,1.6,0,0,0-1.361-1.375,1.629,1.629,0,0,0-.391-1.469,1.6,1.6,0,0,0-1.15-.5H9.738a1.6,1.6,0,0,0-1.582-1.646,1.643,1.643,0,0,0-.39.041,1.6,1.6,0,0,0-1.566-1.37,1.617,1.617,0,0,0-1.1.415l-1.765-2.378,4.223-5.145,1.346.368-1.758,3.1a1.614,1.614,0,0,0,.609,2.2l.071.038.006,0a1.623,1.623,0,0,0,.194.081,1.614,1.614,0,0,0,1.929-.73l1.142-2.016,2.039.145,5.431,5.431a.7.7,0,0,1,0,.991Zm.189-2.093-5.095-5.094-.03-.028a.457.457,0,0,0-.26-.1l-2.5-.177a.464.464,0,0,0-.43.23L9.158,106.88a.7.7,0,1,1-1.219-.691l1.714-3.026.695-.2.014,0,2.593-.749h3.133L20,107.182Zm1.842-3.322-3.617-4.6,1.846-1.174,3.379,4.39Zm0,0" transform="translate(0 -94.617)" fill="#ec489e"/>
    <path id="Path_15" data-name="Path 15" d="M300.6,32.9a.455.455,0,0,0,.323-.134l3.119-3.119A.457.457,0,0,0,303.4,29l-3.119,3.119a.457.457,0,0,0,.323.78Zm0,0" transform="translate(-286.494 -27.08)" fill="#ec489e"/>
    <path id="Path_16" data-name="Path 16" d="M126.448,32.77a.457.457,0,1,0,.646-.646l-3.119-3.119a.457.457,0,0,0-.646.646Zm0,0" transform="translate(-117.593 -27.081)" fill="#ec489e"/>
    <path id="Path_17" data-name="Path 17" d="M246.418,44.193a.457.457,0,0,0,.457-.457V41.156a.457.457,0,0,0-.913,0v2.581A.457.457,0,0,0,246.418,44.193Zm0,0" transform="translate(-234.775 -38.37)" fill="#ec489e"/>
    <path id="Path_18" data-name="Path 18" d="M246.02,1.13a.456.456,0,1,0,.168-.554.459.459,0,0,0-.168.554Zm0,0" transform="translate(-234.798)" fill="#ec489e"/>
  </g>
</svg>
