<svg version="1.2" xmlns="http://www.w3.org/2000/svg" viewBox="0 0 21 21" width="21" height="21">
	<title>phone-call-svg</title>
	<style>
		.s0 { fill: #ffffff } 
	</style>
	<g id="phone-call">
		<g id="Group_70">
			<path id="Path_10" fill-rule="evenodd" class="s0" d="m18.5 15q0.2 0.2 0.3 0.3 0.1 0.2 0.2 0.4 0.1 0.2 0.1 0.4 0.1 0.2 0.1 0.4 0 0.2-0.1 0.4 0 0.2-0.1 0.4-0.1 0.2-0.2 0.4-0.1 0.1-0.3 0.3-0.3 0.3-0.6 0.5 0 0.1-0.1 0.2-0.1 0.1-0.2 0.2-0.1 0.1-0.2 0.2-0.1 0.1-0.2 0.2 0 0 0 0.1-0.3 0.2-0.5 0.4-0.3 0.2-0.6 0.4-0.4 0.1-0.7 0.2-0.4 0-0.7 0-0.1 0-0.3 0-0.5 0-1-0.1-0.5-0.1-0.9-0.3-0.5-0.1-1-0.3-0.4-0.2-0.9-0.4-0.9-0.5-1.9-1.1-0.9-0.5-1.7-1.2-0.9-0.7-1.7-1.4-0.7-0.8-1.4-1.6-0.6-0.6-1-1.3-0.5-0.6-0.9-1.3-0.4-0.7-0.8-1.4-0.3-0.7-0.6-1.5-0.2-0.4-0.3-0.8-0.1-0.4-0.2-0.8 0-0.4-0.1-0.8 0-0.4 0-0.8 0-0.3 0.1-0.6 0.1-0.2 0.2-0.5 0.1-0.2 0.3-0.5 0.2-0.2 0.4-0.4l1.4-1.5q0.2-0.1 0.3-0.2 0.2-0.2 0.4-0.2 0.2-0.1 0.4-0.2 0.2 0 0.4 0 0.2 0 0.4 0 0.2 0.1 0.4 0.2 0.2 0 0.3 0.2 0.2 0.1 0.3 0.2 0.5 0.4 0.8 0.8 0.2 0.2 0.4 0.4l1.2 1.2q0.3 0.3 0.5 0.7 0.2 0.4 0.2 0.8 0 0.4-0.2 0.8-0.2 0.4-0.5 0.7-0.2 0.2-0.3 0.4-0.5 0.4-1 0.9 0.1 0.3 0.2 0.5 0.1 0.3 0.3 0.5 0.1 0.2 0.3 0.4 0.2 0.3 0.3 0.5 0.4 0.4 0.8 0.9 0.4 0.4 0.9 0.8 0.4 0.4 0.9 0.8 0.5 0.4 1 0.7 0.2 0.1 0.4 0.2 0.2 0.1 0.3 0.2l1.4-1.4q0.1-0.1 0.3-0.2 0.2-0.1 0.4-0.2 0.2-0.1 0.4-0.2 0.2 0 0.4 0 0.2 0 0.4 0 0.2 0.1 0.4 0.2 0.2 0.1 0.3 0.2 0.2 0.1 0.3 0.2zm-0.6 1.9q0.1-0.2 0.1-0.4 0-0.2-0.1-0.3-0.1-0.2-0.2-0.3l-2.4-2.4q-0.1-0.1-0.1-0.1-0.1-0.1-0.2-0.1-0.1-0.1-0.1-0.1-0.1 0-0.2 0-0.1 0-0.2 0-0.1 0-0.2 0.1-0.1 0-0.1 0.1-0.1 0-0.2 0.1l-1.4 1.5q-0.1 0-0.2 0.1-0.1 0-0.1 0.1-0.1 0-0.2 0-0.1 0.1-0.2 0.1-0.1 0-0.1 0-0.1-0.1-0.1-0.1-0.1 0-0.1 0-0.1 0-0.1 0-0.1-0.1-0.1-0.1-0.2-0.1-0.4-0.2-0.1 0-0.1-0.1-0.1 0-0.2 0 0-0.1-0.1-0.1-0.1-0.1-0.1-0.1-0.6-0.3-1.1-0.7-0.5-0.4-1-0.9-0.5-0.4-0.9-0.9-0.5-0.5-0.9-1-0.2-0.2-0.4-0.5-0.2-0.3-0.3-0.6-0.2-0.3-0.4-0.5-0.1-0.3-0.3-0.6v-0.1q0-0.1 0-0.2 0-0.2 0-0.3 0-0.1 0.1-0.3 0.1-0.1 0.2-0.2 0 0 0 0 0.5-0.5 1.1-1 0.1-0.2 0.3-0.4 0.2-0.1 0.3-0.3 0.1-0.2 0.1-0.4 0-0.2-0.1-0.4-0.1-0.1-0.3-0.2l-1.1-1.2q-0.2-0.2-0.5-0.4-0.3-0.4-0.7-0.8-0.1-0.1-0.2-0.1 0-0.1-0.1-0.1-0.1-0.1-0.2-0.1-0.1 0-0.2 0-0.1 0-0.2 0 0 0-0.1 0.1-0.1 0-0.2 0.1-0.1 0-0.1 0.1l-1.5 1.4q-0.1 0.2-0.2 0.3-0.1 0.2-0.2 0.3-0.1 0.2-0.1 0.4-0.1 0.1-0.1 0.3 0 0.4 0 0.7 0 0.4 0.1 0.7 0.1 0.3 0.2 0.7 0.1 0.3 0.2 0.6 0.3 0.7 0.6 1.4 0.3 0.7 0.7 1.3 0.4 0.7 0.9 1.3 0.4 0.6 0.9 1.2 0.6 0.8 1.4 1.5 0.7 0.7 1.5 1.3 0.8 0.7 1.7 1.2 0.8 0.5 1.8 1 0.3 0.2 0.8 0.3 0.4 0.2 0.8 0.3 0.4 0.2 0.8 0.3 0.5 0 0.9 0.1 0.1 0 0.2 0 0.2 0 0.5 0 0.2-0.1 0.4-0.2 0.2-0.1 0.4-0.2 0.2-0.1 0.3-0.3 0.1-0.1 0.2-0.2 0.1-0.1 0.2-0.2 0.1-0.1 0.3-0.3 0.1-0.1 0.2-0.2 0.2-0.2 0.5-0.5 0.2-0.1 0.2-0.3z"/>
			<path id="Path_11" class="s0" d="m11 4.9q0.9 0.1 1.6 0.5 0.8 0.4 1.4 1 0.6 0.6 1 1.4 0.4 0.7 0.5 1.6 0.1 0.1 0.1 0.2 0.1 0.1 0.1 0.1 0.1 0.1 0.2 0.1 0.1 0.1 0.2 0.1 0 0 0 0 0 0 0.1 0 0 0 0 0 0 0 0 0 0.1-0.1 0.2-0.1 0.1-0.1 0.2-0.2 0.1-0.1 0.1-0.2 0-0.1 0-0.2-0.2-1-0.7-2-0.4-0.9-1.2-1.6-0.7-0.8-1.6-1.2-1-0.5-2-0.7-0.1 0-0.2 0-0.1 0-0.2 0.1-0.1 0.1-0.2 0.2 0 0.1 0 0.2-0.1 0.1 0 0.2 0 0.1 0 0.2 0.1 0.1 0.2 0.2 0.1 0 0.2 0.1z"/>
			<path id="Path_12" class="s0" d="m20.4 9q-0.3-1.7-1.1-3.2-0.8-1.5-2-2.7-1.2-1.2-2.7-2-1.5-0.8-3.2-1.1-0.3 0-0.5 0.1-0.2 0.1-0.2 0.4 0 0.2 0.1 0.4 0.2 0.2 0.4 0.3 1.5 0.2 2.9 0.9 1.3 0.7 2.4 1.8 1.1 1.1 1.8 2.4 0.7 1.4 0.9 2.9 0 0.1 0.1 0.2 0.1 0.1 0.1 0.1 0.1 0.1 0.2 0.1 0.1 0.1 0.2 0.1 0 0 0 0 0 0 0.1 0 0 0 0 0 0 0 0 0 0.1 0 0.2-0.1 0.1-0.1 0.2-0.2 0.1-0.1 0.1-0.2 0-0.1 0-0.2z"/>
		</g>
	</g>
</svg>