<svg xmlns="http://www.w3.org/2000/svg" xmlns:xlink="http://www.w3.org/1999/xlink" width="99" height="99" viewBox="0 0 99 99">
  <defs>
    <clipPath id="clip-path">
      <rect id="Rectangle_159" data-name="Rectangle 159" width="99" height="99" transform="translate(616 6203)" fill="#fff"/>
    </clipPath>
    <clipPath id="clip-path-2">
      <path id="path303" d="M0-99H99V0H0Z" fill="#fff"/>
    </clipPath>
  </defs>
  <g id="Mask_Group_33" data-name="Mask Group 33" transform="translate(-616 -6203)" clip-path="url(#clip-path)">
    <g id="g297" transform="translate(616 6302)">
      <g id="g299">
        <g id="g301" clip-path="url(#clip-path-2)">
          <g id="g307" transform="translate(20.429 -84.595)">
            <path id="path309" d="M0,0A54.221,54.221,0,0,0-7.292,3.842a4.187,4.187,0,0,1-5.541-1.006l-2.692-3.5a4.2,4.2,0,0,1,2.454-6.66l21.7-4.616a46.119,46.119,0,0,1,28.1,2.855C45.992-5.031,56.831.435,59.7,4.857c3.161,4.865,4.11,10.995,4.365,15.12a1.184,1.184,0,0,1-2.19.693A55.677,55.677,0,0,0,49.737,6.77,47.735,47.735,0,0,0,26.876-3.447,47.555,47.555,0,0,0,6.494-2.3" fill="none" stroke="#fff" stroke-linecap="round" stroke-linejoin="round" stroke-width="2.9"/>
          </g>
          <g id="g311" transform="translate(11.007 -41.304)">
            <path id="path313" d="M0,0A48.353,48.353,0,0,0,15.134,13.484a39.639,39.639,0,0,0,19.452,5.041,39.629,39.629,0,0,0,19.464-5.054A48.491,48.491,0,0,0,69.169,0a5.214,5.214,0,0,0,0-6.171A48.669,48.669,0,0,0,54.683-19.283a40.008,40.008,0,0,0-40.193,0A48.682,48.682,0,0,0,0-6.167,5.211,5.211,0,0,0,0,0Z" fill="none" stroke="#fff" stroke-linecap="round" stroke-linejoin="round" stroke-width="2.9"/>
          </g>
          <g id="g315" transform="translate(30.461 -44.389)">
            <path id="path317" d="M0,0A15.132,15.132,0,0,0,15.132,15.132,15.132,15.132,0,0,0,30.263,0,15.132,15.132,0,0,0,15.132-15.132,15.132,15.132,0,0,0,0,0Z" fill="none" stroke="#fff" stroke-linecap="round" stroke-linejoin="round" stroke-width="2.9"/>
          </g>
          <g id="g319" transform="translate(48.343 -51.926)">
            <path id="path321" d="M0,0A8.023,8.023,0,0,1,5.27,7.537a8.02,8.02,0,0,1-8.021,8.021,8.02,8.02,0,0,1-8.021-8.021,7.983,7.983,0,0,1,.754-3.4" fill="none" stroke="#fff" stroke-linecap="round" stroke-linejoin="round" stroke-width="2.9"/>
          </g>
          <g id="g323" transform="translate(33.419 -51.883)">
            <path id="path325" d="M0,0A4.163,4.163,0,0,0,4.163,4.163,4.163,4.163,0,0,0,8.326,0,4.163,4.163,0,0,0,4.163-4.163,4.163,4.163,0,0,0,0,0Z" fill="none" stroke="#fff" stroke-linecap="round" stroke-linejoin="round" stroke-width="2.9"/>
          </g>
          <g id="g327" transform="translate(65.689 -60.587)">
            <path id="path329" d="M0,0A39.674,39.674,0,0,0-20.1-5.413,39.675,39.675,0,0,0-40.193,0,25.567,25.567,0,0,0-45.781,16a25.59,25.59,0,0,0,6.232,16.772A39.639,39.639,0,0,0-20.1,37.809,39.629,39.629,0,0,0-.632,32.755,25.6,25.6,0,0,0,5.588,16,25.677,25.677,0,0,0,4.434,8.358" fill="none" stroke="#fff" stroke-linecap="round" stroke-linejoin="round" stroke-width="2.9"/>
          </g>
          <g id="g331" transform="translate(81.166 -44.854)">
            <path id="path333" d="M0,0S-2.937-31.164-35.574-31.107C-67.278-31.052-71.05-.635-71.05-.635" fill="none" stroke="#fff" stroke-linecap="round" stroke-linejoin="round" stroke-width="2.9"/>
          </g>
          <g id="g335" transform="translate(93.294 -56.801)">
            <path id="path337" d="M0,0-4.849,5.239" fill="none" stroke="#fff" stroke-linecap="round" stroke-linejoin="round" stroke-width="2.9"/>
          </g>
          <g id="g339" transform="translate(88.444 -44.389)">
            <path id="path341" d="M0,0H6.523" fill="none" stroke="#fff" stroke-linecap="round" stroke-linejoin="round" stroke-width="2.9"/>
          </g>
          <g id="g343" transform="translate(43.017 -8.766)">
            <path id="path345" d="M0,0C-2.031.184-4.162.284-6.395.284" fill="none" stroke="#fff" stroke-linecap="round" stroke-linejoin="round" stroke-width="2.9"/>
          </g>
          <g id="g347" transform="translate(78.229 -26.599)">
            <path id="path349" d="M0,0S-8.051,12.709-28.369,16.838" fill="none" stroke="#fff" stroke-linecap="round" stroke-linejoin="round" stroke-width="2.9"/>
          </g>
          <g id="g351" transform="translate(78.229 -13.193)">
            <path id="path353" d="M0,0A40.457,40.457,0,0,1-17.505,11.743" fill="none" stroke="#fff" stroke-linecap="round" stroke-linejoin="round" stroke-width="2.9"/>
          </g>
        </g>
      </g>
    </g>
  </g>
</svg>
