<svg xmlns="http://www.w3.org/2000/svg" width="26.436" height="18.588" viewBox="0 0 26.436 18.588">
  <g id="mail" transform="translate(0 -76)">
    <g id="Group_158" data-name="Group 158" transform="translate(0 76)">
      <path id="Path_215" data-name="Path 215" d="M24.113,76H2.324A2.327,2.327,0,0,0,0,78.324V92.265a2.327,2.327,0,0,0,2.324,2.324H24.113a2.326,2.326,0,0,0,2.324-2.324V78.324A2.326,2.326,0,0,0,24.113,76Zm-.325,1.549-8.926,8.879a2.324,2.324,0,0,1-3.287,0L2.649,77.549ZM1.549,91.949V78.64L8.243,85.3Zm1.1,1.09,6.691-6.648,1.139,1.133a3.873,3.873,0,0,0,5.475,0l1.14-1.134,6.691,6.648Zm22.237-1.09L18.194,85.3l6.694-6.658Z" transform="translate(0 -76)"/>
    </g>
  </g>
</svg>
