<svg xmlns="http://www.w3.org/2000/svg" xmlns:xlink="http://www.w3.org/1999/xlink" width="99" height="99" viewBox="0 0 99 99">
  <defs>
    <clipPath id="clip-path">
      <rect id="Rectangle_165" data-name="Rectangle 165" width="99" height="99" transform="translate(1485 6203)" fill="#fff"/>
    </clipPath>
  </defs>
  <g id="Mask_Group_30" data-name="Mask Group 30" transform="translate(-1485 -6203)" clip-path="url(#clip-path)">
    <g id="blepharoplasty" transform="translate(1485 6203)">
      <path id="Path_288" data-name="Path 288" d="M14.587,70.615a1.65,1.65,0,0,0-3.042,1.279,41.114,41.114,0,0,0,7.618,11.933,1.65,1.65,0,0,0,2.429-2.233,37.83,37.83,0,0,1-7.006-10.979Z" fill="#fff"/>
      <path id="Path_289" data-name="Path 289" d="M69.914,89.477a40.626,40.626,0,0,1-12.433,4.04,1.65,1.65,0,0,0,.51,3.26,43.922,43.922,0,0,0,13.44-4.37,1.65,1.65,0,1,0-1.517-2.93Z" fill="#fff"/>
      <path id="Path_290" data-name="Path 290" d="M89.468,69.757a1.65,1.65,0,0,0-2.162.877A37.858,37.858,0,0,1,80.278,81.6,1.65,1.65,0,0,0,82.7,83.835a41.152,41.152,0,0,0,7.641-11.916,1.65,1.65,0,0,0-.877-2.162Z" fill="#fff"/>
      <path id="Path_291" data-name="Path 291" d="M44.38,93.522a40.5,40.5,0,0,1-12.433-4.037,1.65,1.65,0,1,0-1.518,2.93,43.791,43.791,0,0,0,13.443,4.368,1.65,1.65,0,0,0,.508-3.26Z" fill="#fff"/>
      <path id="Path_292" data-name="Path 292" d="M94.153,51.839a1.639,1.639,0,0,0-.287-.9,72.606,72.606,0,0,0-8.612-10.329,8.906,8.906,0,0,0,4.467-3.749,1.65,1.65,0,0,0-2.832-1.694,5.545,5.545,0,0,1-4.562,2.73q-1.582-1.374-3.224-2.608a9.491,9.491,0,0,0,4.657-4.09A1.65,1.65,0,1,0,80.9,29.551a6.541,6.541,0,0,1-5.42,3.24c-1.434-.908-2.864-1.725-4.412-2.5a8.85,8.85,0,0,0,2.948-2.25,1.65,1.65,0,0,0-2.507-2.146A7.066,7.066,0,0,1,65.772,28C43.716,20.059,22.128,30.63,8.058,50.935a1.692,1.692,0,0,0-.294.94A59.431,59.431,0,0,0,8.1,58.229a1.65,1.65,0,1,0,3.281-.354c-.025-.231-.044-.466-.066-.7C33.035,84.219,64.536,85,86.734,61.621a1.65,1.65,0,0,0-2.393-2.272c-22.048,23.216-52.773,20.671-72.91-7.474,19.991-27.955,49.724-30.106,71.131-9.283A64.885,64.885,0,0,0,25.6,39.5a1.65,1.65,0,1,0,1.3,3.035,59.87,59.87,0,0,1,8.378-2.861C25.2,52.634,34.406,71.744,50.959,71.744A19.9,19.9,0,0,0,69.2,44a1.65,1.65,0,1,0-3.029,1.31A16.594,16.594,0,0,1,50.959,68.444c-16,0-22.715-20.608-9.686-30.012C59.019,35.658,77.6,40.717,90.845,52.6c-.022,1.8-.122,3.567-.307,5.274a1.65,1.65,0,1,0,3.28.356,58.705,58.705,0,0,0,.334-6.39Z" fill="#fff"/>
      <path id="Path_293" data-name="Path 293" d="M54.275,51.7a7.624,7.624,0,0,0,7.8-.29,1.65,1.65,0,1,0-1.8-2.767,4.329,4.329,0,0,1-5.95-6.036,1.651,1.651,0,0,0-1.055-2.538A12.035,12.035,0,0,0,38.929,51.875c0,10.95,13.6,16.221,20.96,8.061a1.65,1.65,0,0,0-2.451-2.21,8.731,8.731,0,1,1-6.913-14.573A7.558,7.558,0,0,0,54.275,51.7Z" fill="#fff"/>
      <path id="Path_294" data-name="Path 294" d="M18.586,90.639a1.65,1.65,0,0,0-2.289.452l-1.339,2a1.65,1.65,0,0,0-2.932,1.233c.456,3.459.413,3.14.43,3.26A1.645,1.645,0,0,0,14.087,99a20,20,0,0,0,3.359-.822,1.65,1.65,0,0,0,.174-3.135l1.417-2.115A1.65,1.65,0,0,0,18.586,90.639Z" fill="#fff"/>
      <path id="Path_295" data-name="Path 295" d="M86.961,93.089l-1.339-2a1.65,1.65,0,1,0-2.741,1.837L84.3,95.043a1.65,1.65,0,0,0,.174,3.135l2.941.768a1.652,1.652,0,0,0,2.05-1.365c.015-.108.022-.158.43-3.259a1.65,1.65,0,0,0-2.933-1.233Z" fill="#fff"/>
      <path id="Path_296" data-name="Path 296" d="M9.094,25.957a1.65,1.65,0,0,0,.068-2.332c-1.442-1.529-1.4-3.419.421-4.918C30.708,1.368,61.706-1.687,88.553,10.921c1.268.6-.023,1.644-1.332,1.264C48.64.983,35.948,20.249,18.157,24.671a1.65,1.65,0,0,0,.8,3.2C37.426,23.282,49.2,4.58,86.3,15.353c5.351,1.553,8.6-5.1,3.655-7.419C63.459-4.51,30.483-2.716,7.491,16.156a6.377,6.377,0,0,0-.729,9.733,1.65,1.65,0,0,0,2.332.068Z" fill="#fff"/>
    </g>
  </g>
</svg>
