<svg id="clock_2_" data-name="clock (2)" xmlns="http://www.w3.org/2000/svg" width="17.613" height="17.613" viewBox="0 0 17.613 17.613">
  <path id="Path_216" data-name="Path 216" d="M9.807,1a8.807,8.807,0,1,0,8.807,8.807A8.807,8.807,0,0,0,9.807,1Zm0,16.012a7.205,7.205,0,1,1,7.205-7.205A7.205,7.205,0,0,1,9.807,17.012Z" transform="translate(-1 -1)" fill="#ec489e"/>
  <path id="Path_217" data-name="Path 217" d="M12.6,10.273V5.8a.8.8,0,1,0-1.6,0v4.8a.8.8,0,0,0,.234.566l2.4,2.4a.8.8,0,1,0,1.132-1.132Z" transform="translate(-2.994 -1.798)" fill="#ec489e"/>
</svg>
