<svg xmlns="http://www.w3.org/2000/svg" xmlns:xlink="http://www.w3.org/1999/xlink" width="99" height="99" viewBox="0 0 99 99">
  <defs>
    <clipPath id="clip-path">
      <rect id="Rectangle_161" data-name="Rectangle 161" width="99" height="99" transform="translate(896 6203)"/>
    </clipPath>
  </defs>
  <g id="Mask_Group_32" data-name="Mask Group 32" transform="translate(-896 -6203)" clip-path="url(#clip-path)">
    <g id="eye" transform="translate(896 6203)">
      <path id="Path_315" data-name="Path 315" d="M27.134,43.711a23.935,23.935,0,1,0,.024-17.141" fill="none" stroke="#fff" stroke-linecap="round" stroke-linejoin="round" stroke-width="3.875"/>
      <line id="Line_6" data-name="Line 6" y2="5.131" transform="translate(49.5 5.066)" fill="none" stroke="#fff" stroke-linecap="round" stroke-linejoin="round" stroke-width="3.875"/>
      <line id="Line_7" data-name="Line 7" x2="2.189" y2="4.641" transform="translate(23.194 11.747)" fill="none" stroke="#fff" stroke-linecap="round" stroke-linejoin="round" stroke-width="3.875"/>
      <line id="Line_8" data-name="Line 8" x2="2.929" y2="4.213" transform="translate(3.427 24.742)" fill="none" stroke="#fff" stroke-linecap="round" stroke-linejoin="round" stroke-width="3.875"/>
      <line id="Line_9" data-name="Line 9" x1="2.189" y2="4.641" transform="translate(73.618 11.747)" fill="none" stroke="#fff" stroke-linecap="round" stroke-linejoin="round" stroke-width="3.875"/>
      <line id="Line_10" data-name="Line 10" x1="2.929" y2="4.213" transform="translate(92.643 24.742)" fill="none" stroke="#fff" stroke-linecap="round" stroke-linejoin="round" stroke-width="3.875"/>
      <path id="Path_316" data-name="Path 316" d="M49.5,11.237c-22.078,0-40.725,16.116-46.7,21.893a2.823,2.823,0,0,0,0,4.061c5.975,5.78,24.622,21.9,46.7,21.9s40.726-16.124,46.7-21.9a2.823,2.823,0,0,0,0-4.061C90.225,27.353,71.578,11.237,49.5,11.237Z" fill="none" stroke="#fff" stroke-linecap="round" stroke-linejoin="round" stroke-width="3.875"/>
      <circle id="Ellipse_35" data-name="Ellipse 35" cx="11.031" cy="11.031" r="11.031" transform="translate(38.469 24.141)" fill="none" stroke="#fff" stroke-linecap="round" stroke-linejoin="round" stroke-width="3.875"/>
      <path id="Path_317" data-name="Path 317" d="M2.8,54.865c5.975,5.071,24.622,19.22,46.7,19.22s40.726-14.148,46.7-19.22" fill="none" stroke="#fff" stroke-linecap="round" stroke-linejoin="round" stroke-width="3.875" stroke-dasharray="10.543 63.258 10.543 63.258 10.543 63.258"/>
      <line id="Line_11" data-name="Line 11" transform="translate(25.497 35.166)" fill="none" stroke="#fff" stroke-linecap="round" stroke-linejoin="round" stroke-width="3.875" stroke-dasharray="10.543 63.258 10.543 63.258 10.543 63.258"/>
      <g id="Group_348" data-name="Group 348">
        <path id="Path_318" data-name="Path 318" d="M43.091,87.183l-5.237-5.139-5.238,5.139" fill="none" stroke="#fff" stroke-linecap="round" stroke-linejoin="round" stroke-width="3.875"/>
        <line id="Line_12" data-name="Line 12" y1="11.891" transform="translate(37.853 82.043)" fill="none" stroke="#fff" stroke-linecap="round" stroke-linejoin="round" stroke-width="3.875"/>
        <path id="Path_319" data-name="Path 319" d="M66.384,87.183l-5.238-5.139L55.91,87.183" fill="none" stroke="#fff" stroke-linecap="round" stroke-linejoin="round" stroke-width="3.875"/>
        <line id="Line_13" data-name="Line 13" y1="11.891" transform="translate(61.147 82.043)" fill="none" stroke="#fff" stroke-linecap="round" stroke-linejoin="round" stroke-width="3.875"/>
      </g>
    </g>
  </g>
</svg>
