<svg version="1.2" xmlns="http://www.w3.org/2000/svg" viewBox="0 0 27 19" width="27" height="19">
	<title>mail-svg</title>
	<style>
		.s0 { fill: #ffffff } 
	</style>
	<g id="mail">
		<g id="Group_158">
			<path id="Path_215" fill-rule="evenodd" class="s0" d="m25 0.2q0.4 0.2 0.8 0.5 0.3 0.3 0.5 0.7 0.1 0.5 0.1 0.9v14q0 0.4-0.1 0.9-0.2 0.4-0.5 0.7-0.4 0.3-0.8 0.5-0.4 0.2-0.9 0.2h-21.8q-0.4 0-0.9-0.2-0.4-0.2-0.7-0.5-0.3-0.3-0.5-0.7-0.2-0.5-0.2-0.9v-14q0-0.4 0.2-0.9 0.2-0.4 0.5-0.7 0.3-0.3 0.7-0.5 0.5-0.2 0.9-0.2h21.8q0.5 0 0.9 0.2zm-22.4 1.3l9 8.9q0.3 0.4 0.7 0.5 0.5 0.2 0.9 0.2 0.5 0 0.9-0.2 0.4-0.1 0.8-0.5l8.9-8.9zm5.6 7.8l-6.7-6.7v13.3zm15.5 7.8l-6.7-6.7-1.1 1.2q-0.5 0.5-1.3 0.8-0.7 0.3-1.4 0.3-0.8 0-1.5-0.3-0.7-0.3-1.3-0.8l-1.1-1.2-6.7 6.7zm1.1-14.4l-6.7 6.7 6.7 6.6z"/>
		</g>
	</g>
</svg>