<svg xmlns="http://www.w3.org/2000/svg" xmlns:xlink="http://www.w3.org/1999/xlink" width="99" height="99" viewBox="0 0 99 99">
  <defs>
    <clipPath id="clip-path">
      <rect id="Rectangle_157" data-name="Rectangle 157" width="99" height="99" transform="translate(336 6203)" fill="#fff"/>
    </clipPath>
    <clipPath id="clip-path-2">
      <path id="path2265" d="M0-99H99V0H0Z" fill="#fff"/>
    </clipPath>
  </defs>
  <g id="Mask_Group_34" data-name="Mask Group 34" transform="translate(-336 -6203)" clip-path="url(#clip-path)">
    <g id="g2259" transform="translate(336 6302)">
      <g id="g2261">
        <g id="g2263" clip-path="url(#clip-path-2)">
          <g id="g2269" transform="translate(1.45 -16.95)">
            <path id="path2271" d="M0,0H96.1" fill="none" stroke="#fff" stroke-linecap="round" stroke-linejoin="round" stroke-width="2.9"/>
          </g>
        </g>
      </g>
      <g id="g2273" transform="translate(46.4 -37.1)">
        <path id="path2275" d="M0,0H3.1" fill="none" stroke="#fff" stroke-linecap="round" stroke-linejoin="round" stroke-width="2.9"/>
      </g>
      <g id="g2277" transform="translate(57.25 -37.1)">
        <path id="path2279" d="M0,0H3.1" fill="none" stroke="#fff" stroke-linecap="round" stroke-linejoin="round" stroke-width="2.9"/>
      </g>
      <g id="g2281" transform="translate(68.1 -37.1)">
        <path id="path2283" d="M0,0H3.1" fill="none" stroke="#fff" stroke-linecap="round" stroke-linejoin="round" stroke-width="2.9"/>
      </g>
      <g id="g2285" transform="translate(78.95 -37.1)">
        <path id="path2287" d="M0,0H3.1" fill="none" stroke="#fff" stroke-linecap="round" stroke-linejoin="round" stroke-width="2.9"/>
      </g>
      <g id="g2289" transform="translate(89.8 -37.1)">
        <path id="path2291" d="M0,0H3.1" fill="none" stroke="#fff" stroke-linecap="round" stroke-linejoin="round" stroke-width="2.9"/>
      </g>
      <g id="g2293">
        <g id="g2295" clip-path="url(#clip-path-2)">
          <g id="g2301" transform="translate(3 -37.1)">
            <path id="path2303" d="M0,0H3.1" fill="none" stroke="#fff" stroke-linecap="round" stroke-linejoin="round" stroke-width="2.9"/>
          </g>
        </g>
      </g>
      <g id="g2305" transform="translate(13.85 -37.1)">
        <path id="path2307" d="M0,0H3.1" fill="none" stroke="#fff" stroke-linecap="round" stroke-linejoin="round" stroke-width="2.9"/>
      </g>
      <g id="g2309" transform="translate(24.7 -37.1)">
        <path id="path2311" d="M0,0H3.1" fill="none" stroke="#fff" stroke-linecap="round" stroke-linejoin="round" stroke-width="2.9"/>
      </g>
      <g id="g2313" transform="translate(35.55 -37.1)">
        <path id="path2315" d="M0,0H3.1" fill="none" stroke="#fff" stroke-linecap="round" stroke-linejoin="round" stroke-width="2.9"/>
      </g>
      <g id="g2317" transform="translate(49.5 -30.9)">
        <path id="path2319" d="M0,0H3.1" fill="none" stroke="#fff" stroke-linecap="round" stroke-linejoin="round" stroke-width="2.9"/>
      </g>
      <g id="g2321" transform="translate(60.35 -30.9)">
        <path id="path2323" d="M0,0H3.1" fill="none" stroke="#fff" stroke-linecap="round" stroke-linejoin="round" stroke-width="2.9"/>
      </g>
      <g id="g2325" transform="translate(71.2 -30.9)">
        <path id="path2327" d="M0,0H3.1" fill="none" stroke="#fff" stroke-linecap="round" stroke-linejoin="round" stroke-width="2.9"/>
      </g>
      <g id="g2329" transform="translate(82.05 -30.9)">
        <path id="path2331" d="M0,0H3.1" fill="none" stroke="#fff" stroke-linecap="round" stroke-linejoin="round" stroke-width="2.9"/>
      </g>
      <g id="g2333">
        <g id="g2335" clip-path="url(#clip-path-2)">
          <g id="g2341" transform="translate(92.9 -30.9)">
            <path id="path2343" d="M0,0H3.1" fill="none" stroke="#fff" stroke-linecap="round" stroke-linejoin="round" stroke-width="2.9"/>
          </g>
        </g>
      </g>
      <g id="g2345" transform="translate(6.1 -30.9)">
        <path id="path2347" d="M0,0H3.1" fill="none" stroke="#fff" stroke-linecap="round" stroke-linejoin="round" stroke-width="2.9"/>
      </g>
      <g id="g2349" transform="translate(16.95 -30.9)">
        <path id="path2351" d="M0,0H3.1" fill="none" stroke="#fff" stroke-linecap="round" stroke-linejoin="round" stroke-width="2.9"/>
      </g>
      <g id="g2353" transform="translate(27.8 -30.9)">
        <path id="path2355" d="M0,0H3.1" fill="none" stroke="#fff" stroke-linecap="round" stroke-linejoin="round" stroke-width="2.9"/>
      </g>
      <g id="g2357" transform="translate(38.65 -30.9)">
        <path id="path2359" d="M0,0H3.1" fill="none" stroke="#fff" stroke-linecap="round" stroke-linejoin="round" stroke-width="2.9"/>
      </g>
      <g id="g2361" transform="translate(46.4 -24.7)">
        <path id="path2363" d="M0,0H3.1" fill="none" stroke="#fff" stroke-linecap="round" stroke-linejoin="round" stroke-width="2.9"/>
      </g>
      <g id="g2365" transform="translate(57.25 -24.7)">
        <path id="path2367" d="M0,0H3.1" fill="none" stroke="#fff" stroke-linecap="round" stroke-linejoin="round" stroke-width="2.9"/>
      </g>
      <g id="g2369" transform="translate(68.1 -24.7)">
        <path id="path2371" d="M0,0H3.1" fill="none" stroke="#fff" stroke-linecap="round" stroke-linejoin="round" stroke-width="2.9"/>
      </g>
      <g id="g2373" transform="translate(78.95 -24.7)">
        <path id="path2375" d="M0,0H3.1" fill="none" stroke="#fff" stroke-linecap="round" stroke-linejoin="round" stroke-width="2.9"/>
      </g>
      <g id="g2377" transform="translate(89.8 -24.7)">
        <path id="path2379" d="M0,0H3.1" fill="none" stroke="#fff" stroke-linecap="round" stroke-linejoin="round" stroke-width="2.9"/>
      </g>
      <g id="g2381">
        <g id="g2383" clip-path="url(#clip-path-2)">
          <g id="g2389" transform="translate(3 -24.7)">
            <path id="path2391" d="M0,0H3.1" fill="none" stroke="#fff" stroke-linecap="round" stroke-linejoin="round" stroke-width="2.9"/>
          </g>
        </g>
      </g>
      <g id="g2393" transform="translate(13.85 -24.7)">
        <path id="path2395" d="M0,0H3.1" fill="none" stroke="#fff" stroke-linecap="round" stroke-linejoin="round" stroke-width="2.9"/>
      </g>
      <g id="g2397" transform="translate(24.7 -24.7)">
        <path id="path2399" d="M0,0H3.1" fill="none" stroke="#fff" stroke-linecap="round" stroke-linejoin="round" stroke-width="2.9"/>
      </g>
      <g id="g2401" transform="translate(35.55 -24.7)">
        <path id="path2403" d="M0,0H3.1" fill="none" stroke="#fff" stroke-linecap="round" stroke-linejoin="round" stroke-width="2.9"/>
      </g>
      <g id="g2405">
        <g id="g2407" clip-path="url(#clip-path-2)">
          <g id="g2413" transform="translate(20.049 -45.15)">
            <path id="path2415" d="M0,0A10.956,10.956,0,0,1,5.416-1.25c6,0,6,3.1,12.008,3.1s6.005-3.1,12.011-3.1,6.007,3.1,12.015,3.1,6.006-3.1,12.011-3.1,6.01,3.1,12.02,3.1,6.01-3.1,12.02-3.1" fill="none" stroke="#fff" stroke-linecap="round" stroke-linejoin="round" stroke-width="2.9"/>
          </g>
          <g id="g2417" transform="translate(1.45 -46.4)">
            <path id="path2419" d="M0,0C6,0,6,3.1,12.008,3.1" fill="none" stroke="#fff" stroke-linecap="round" stroke-linejoin="round" stroke-width="2.9"/>
          </g>
          <g id="g2421" transform="translate(1.45 -63.45)">
            <path id="path2423" d="M0,0C6,0,6,6.2,12.008,6.2s6-6.2,12.008-6.2,6,6.2,12.008,6.2S42.029,0,48.034,0s6.008,6.2,12.015,6.2S66.055,0,72.06,0s6.01,6.2,12.02,6.2S90.09,0,96.1,0" fill="none" stroke="#fff" stroke-linecap="round" stroke-linejoin="round" stroke-width="2.9"/>
          </g>
          <g id="g2425" transform="translate(65.573 -51.664)">
            <path id="path2427" d="M0,0A13.215,13.215,0,0,1-4.073.614c-5.629,0-8.654-3.121-10.46-4.985a8.912,8.912,0,0,0-1.285-1.194s-.543,0-.543,0a9.119,9.119,0,0,0-1.279,1.191C-19.448-2.507-22.471.614-28.1.614s-8.651-3.122-10.458-4.987a8.973,8.973,0,0,0-1.283-1.192h-.539a9.079,9.079,0,0,0-1.278,1.191C-43.464-2.507-46.486.614-52.115.614s-8.651-3.122-10.458-4.987a8.962,8.962,0,0,0-1.283-1.192,1.187,1.187,0,0,0-.267-.021" fill="none" stroke="#fff" stroke-linecap="round" stroke-linejoin="round" stroke-width="2.9"/>
          </g>
          <g id="g2429" transform="translate(97.55 -57.25)">
            <path id="path2431" d="M0,0A1.057,1.057,0,0,0-.276.023,8.943,8.943,0,0,0-1.558,1.215C-3.366,3.079-6.39,6.2-12.019,6.2s-8.654-3.12-10.462-4.984A8.923,8.923,0,0,0-23.767.022h-.545a9.114,9.114,0,0,0-1.279,1.191c-.232.239-.483.5-.758.77" fill="none" stroke="#fff" stroke-linecap="round" stroke-linejoin="round" stroke-width="2.9"/>
          </g>
          <g id="g2433" transform="translate(24.7 -82.05)">
            <path id="path2435" d="M0,0V10.85" fill="none" stroke="#fff" stroke-linecap="round" stroke-linejoin="round" stroke-width="2.9"/>
          </g>
          <g id="g2437" transform="translate(20.05 -74.3)">
            <path id="path2439" d="M0,0,4.65,4.65,9.3,0" fill="none" stroke="#fff" stroke-linecap="round" stroke-linejoin="round" stroke-width="2.9"/>
          </g>
          <g id="g2441" transform="translate(49.5 -82.05)">
            <path id="path2443" d="M0,0V10.85" fill="none" stroke="#fff" stroke-linecap="round" stroke-linejoin="round" stroke-width="2.9"/>
          </g>
          <g id="g2445" transform="translate(44.85 -74.3)">
            <path id="path2447" d="M0,0,4.65,4.65,9.3,0" fill="none" stroke="#fff" stroke-linecap="round" stroke-linejoin="round" stroke-width="2.9"/>
          </g>
          <g id="g2449" transform="translate(74.3 -82.05)">
            <path id="path2451" d="M0,0V10.85" fill="none" stroke="#fff" stroke-linecap="round" stroke-linejoin="round" stroke-width="2.9"/>
          </g>
          <g id="g2453" transform="translate(69.65 -74.3)">
            <path id="path2455" d="M0,0,4.65,4.65,9.3,0" fill="none" stroke="#fff" stroke-linecap="round" stroke-linejoin="round" stroke-width="2.9"/>
          </g>
        </g>
      </g>
    </g>
  </g>
</svg>
