<svg id="information" xmlns="http://www.w3.org/2000/svg" width="34" height="34" viewBox="0 0 34 34">
  <g id="Group_431" data-name="Group 431">
    <g id="Group_430" data-name="Group 430">
      <path id="Path_339" data-name="Path 339" d="M17,0A17,17,0,1,0,34,17,16.99,16.99,0,0,0,17,0Zm0,31.344A14.344,14.344,0,1,1,31.344,17,14.336,14.336,0,0,1,17,31.344Z" fill="#f7f7f7"/>
    </g>
  </g>
  <g id="Group_433" data-name="Group 433" transform="translate(15.672 14.233)">
    <g id="Group_432" data-name="Group 432">
      <path id="Path_340" data-name="Path 340" d="M237.328,214.33A1.328,1.328,0,0,0,236,215.658v8.553a1.328,1.328,0,1,0,2.656,0v-8.553A1.328,1.328,0,0,0,237.328,214.33Z" transform="translate(-236 -214.33)" fill="#f7f7f7"/>
    </g>
  </g>
  <g id="Group_435" data-name="Group 435" transform="translate(15.207 9.021)">
    <g id="Group_434" data-name="Group 434">
      <circle id="Ellipse_40" data-name="Ellipse 40" cx="1.793" cy="1.793" r="1.793" fill="#f7f7f7"/>
    </g>
  </g>
</svg>
