<svg xmlns="http://www.w3.org/2000/svg" xmlns:xlink="http://www.w3.org/1999/xlink" width="74" height="74" viewBox="0 0 74 74">
  <defs>
    <clipPath id="clip-path">
      <rect id="Rectangle_60" data-name="Rectangle 60" width="74" height="74" transform="translate(1361 2111)" fill="#13a89e"/>
    </clipPath>
  </defs>
  <g id="Mask_Group_8" data-name="Mask Group 8" transform="translate(-1361 -2111)" clip-path="url(#clip-path)">
    <g id="skin_2_" data-name="skin (2)" transform="translate(1361 2111)">
      <path id="Path_106" data-name="Path 106" d="M73.133,43.287H48.864a.867.867,0,1,1,0-1.734H73.133a.867.867,0,0,1,0,1.734Z" fill="#13a89e"/>
      <path id="Path_107" data-name="Path 107" d="M25.148,43.287H.867a.867.867,0,1,1,0-1.734H25.148a.867.867,0,0,1,0,1.734Z" fill="#13a89e"/>
      <path id="Path_108" data-name="Path 108" d="M9.236,55.593A3.469,3.469,0,1,1,12.7,52.124a3.469,3.469,0,0,1-3.469,3.469Zm0-5.2a1.734,1.734,0,1,0,1.734,1.734,1.734,1.734,0,0,0-1.734-1.734Z" fill="#13a89e"/>
      <path id="Path_109" data-name="Path 109" d="M18.5,64.388a3.469,3.469,0,1,1,3.469-3.469A3.469,3.469,0,0,1,18.5,64.388Zm0-5.2a1.734,1.734,0,1,0,1.734,1.734A1.734,1.734,0,0,0,18.5,59.186Z" fill="#13a89e"/>
      <path id="Path_110" data-name="Path 110" d="M37,64.388a3.469,3.469,0,1,1,3.469-3.469A3.469,3.469,0,0,1,37,64.388Zm0-5.2a1.734,1.734,0,1,0,1.734,1.734A1.734,1.734,0,0,0,37,59.186Z" fill="#13a89e"/>
      <path id="Path_111" data-name="Path 111" d="M55.5,64.388a3.469,3.469,0,1,1,3.469-3.469A3.469,3.469,0,0,1,55.5,64.388Zm0-5.2a1.734,1.734,0,1,0,1.734,1.734A1.734,1.734,0,0,0,55.5,59.186Z" fill="#13a89e"/>
      <path id="Path_112" data-name="Path 112" d="M27.75,55.593a3.469,3.469,0,1,1,3.469-3.469,3.469,3.469,0,0,1-3.469,3.469Zm0-5.2a1.734,1.734,0,1,0,1.734,1.734,1.734,1.734,0,0,0-1.734-1.734Z" fill="#13a89e"/>
      <path id="Path_113" data-name="Path 113" d="M46.263,55.593a3.469,3.469,0,1,1,3.469-3.469,3.469,3.469,0,0,1-3.469,3.469Zm0-5.2A1.734,1.734,0,1,0,48,52.124a1.734,1.734,0,0,0-1.734-1.734Z" fill="#13a89e"/>
      <path id="Path_114" data-name="Path 114" d="M64.777,55.593a3.469,3.469,0,1,1,3.469-3.469,3.469,3.469,0,0,1-3.469,3.469Zm0-5.2a1.734,1.734,0,1,0,1.734,1.734,1.734,1.734,0,0,0-1.734-1.734Z" fill="#13a89e"/>
      <path id="Path_115" data-name="Path 115" d="M37,50.392c-5.241,0-9.5-5.068-9.5-11.3a12.938,12.938,0,0,1,1-5.059H.867a.867.867,0,1,1,0-1.734h27.7a1.689,1.689,0,0,1,1.414.763,1.664,1.664,0,0,1,.141,1.576,11.354,11.354,0,0,0-.9,4.454c0,5.272,3.486,9.562,7.77,9.562s7.767-4.29,7.767-9.562a11.37,11.37,0,0,0-.9-4.454,1.664,1.664,0,0,1,.142-1.576,1.689,1.689,0,0,1,1.414-.763H73.133a.867.867,0,0,1,0,1.734H45.5a12.948,12.948,0,0,1,1,5.059c0,6.23-4.261,11.3-9.5,11.3Z" fill="#13a89e"/>
      <path id="Path_116" data-name="Path 116" d="M39.445,31.528H34.552a.867.867,0,0,1-.867-.867V27.134H30.161a.867.867,0,0,1-.867-.867V21.373a.867.867,0,0,1,.867-.867h3.524V16.982a.867.867,0,0,1,.867-.867h4.894a.867.867,0,0,1,.867.867v3.523h3.527a.867.867,0,0,1,.867.867v4.894a.867.867,0,0,1-.867.867H40.313v3.527a.867.867,0,0,1-.867.867Zm-4.027-1.734h3.159V26.267a.867.867,0,0,1,.867-.867h3.527V22.24H39.445a.867.867,0,0,1-.867-.867V17.85H35.419v3.523a.867.867,0,0,1-.867.867H31.028V25.4h3.524a.867.867,0,0,1,.867.867Z" fill="#13a89e"/>
      <path id="Path_117" data-name="Path 117" d="M57.373,21.82H53.625a.867.867,0,0,1-.867-.867v-2.5H50.263a.867.867,0,0,1-.867-.867V13.841a.867.867,0,0,1,.867-.867h2.495V10.479a.867.867,0,0,1,.867-.867h3.747a.867.867,0,0,1,.867.867v2.495h2.5a.867.867,0,0,1,.867.867v3.747a.867.867,0,0,1-.867.867h-2.5v2.5A.867.867,0,0,1,57.373,21.82Zm-2.88-1.734h2.013v-2.5a.867.867,0,0,1,.867-.867h2.5V14.709h-2.5a.867.867,0,0,1-.867-.867V11.347H54.492v2.495a.867.867,0,0,1-.867.867H51.13v2.013h2.495a.867.867,0,0,1,.867.867Z" fill="#13a89e"/>
    </g>
  </g>
</svg>
