<svg xmlns="http://www.w3.org/2000/svg" xmlns:xlink="http://www.w3.org/1999/xlink" width="74" height="74" viewBox="0 0 74 74">
  <defs>
    <clipPath id="clip-path">
      <rect id="Rectangle_59" data-name="Rectangle 59" width="74" height="74" transform="translate(1143 2111)"/>
    </clipPath>
    <clipPath id="clip-path-2">
      <path id="path3510" d="M0-74H74V0H0Z"/>
    </clipPath>
  </defs>
  <g id="Mask_Group_9" data-name="Mask Group 9" transform="translate(-1143 -2111)" clip-path="url(#clip-path)">
    <g id="g3504" transform="translate(1143 2185)">
      <g id="g3506">
        <g id="g3508" clip-path="url(#clip-path-2)">
          <g id="g3514" transform="translate(57.689 -57.486)">
            <path id="path3516" d="M0,0C-.5-3.777-3.786-10.33-3.786-10.33S-7.073-3.777-7.572,0c-.316,2.395,1.293,5.176,3.741,5.246v0l.045,0,.045,0v0C-1.293,5.176.316,2.395,0,0Z" fill="none" stroke="#13a89e" stroke-linecap="round" stroke-linejoin="round" stroke-width="2.168"/>
          </g>
          <g id="g3518" transform="translate(16.311 -57.486)">
            <path id="path3520" d="M0,0C-.316,2.395,1.293,5.176,3.741,5.246v0l.045,0,.045,0v0C6.28,5.176,7.889,2.395,7.572,0c-.5-3.777-3.786-10.33-3.786-10.33S2.582-7.93,1.521-5.2l-.114.3" fill="none" stroke="#13a89e" stroke-linecap="round" stroke-linejoin="round" stroke-width="2.168"/>
          </g>
          <g id="g3522" transform="translate(46.875 -41.156)">
            <path id="path3524" d="M0,0H26.056" fill="none" stroke="#13a89e" stroke-linecap="round" stroke-linejoin="round" stroke-width="2.168"/>
          </g>
          <g id="g3526" transform="translate(1.07 -41.156)">
            <path id="path3528" d="M0,0H26.107" fill="none" stroke="#13a89e" stroke-linecap="round" stroke-linejoin="round" stroke-width="2.168"/>
          </g>
          <g id="g3530" transform="translate(27.753 -46.541)">
            <path id="path3532" d="M0,0H-26.683" fill="none" stroke="#13a89e" stroke-linecap="round" stroke-linejoin="round" stroke-width="2.168"/>
          </g>
          <g id="g3534" transform="translate(72.93 -46.541)">
            <path id="path3536" d="M0,0H-26.977" fill="none" stroke="#13a89e" stroke-linecap="round" stroke-linejoin="round" stroke-width="2.168"/>
          </g>
          <g id="g3538" transform="translate(58.854 -29.181)">
            <path id="path3540" d="M0,0A14.624,14.624,0,0,0,2.1.14c5.989,0,5.989-2.891,11.977-2.891" fill="none" stroke="#13a89e" stroke-linecap="round" stroke-linejoin="round" stroke-width="2.168"/>
          </g>
          <g id="g3542" transform="translate(1.07 -31.932)">
            <path id="path3544" d="M0,0C5.988,0,5.988,2.891,11.976,2.891S17.965,0,23.953,0s5.988,2.891,11.976,2.891S41.918,0,47.906,0A11.507,11.507,0,0,1,53.1,1.068" fill="none" stroke="#13a89e" stroke-linecap="round" stroke-linejoin="round" stroke-width="2.168"/>
          </g>
          <g id="g3546" transform="translate(1.07 -6.183)">
            <path id="path3548" d="M0,0H71.861" fill="none" stroke="#13a89e" stroke-linecap="round" stroke-linejoin="round" stroke-width="2.168"/>
          </g>
          <g id="g3550" transform="translate(3.027 -25.243)">
            <path id="path3552" d="M0,0H1.322" fill="none" stroke="#13a89e" stroke-linecap="round" stroke-linejoin="round" stroke-width="2.168"/>
          </g>
          <g id="g3554" transform="translate(10.43 -25.243)">
            <path id="path3556" d="M0,0H1.322" fill="none" stroke="#13a89e" stroke-linecap="round" stroke-linejoin="round" stroke-width="2.168"/>
          </g>
          <g id="g3558" transform="translate(17.832 -25.243)">
            <path id="path3560" d="M0,0H1.322" fill="none" stroke="#13a89e" stroke-linecap="round" stroke-linejoin="round" stroke-width="2.168"/>
          </g>
          <g id="g3562" transform="translate(25.235 -25.243)">
            <path id="path3564" d="M0,0H1.322" fill="none" stroke="#13a89e" stroke-linecap="round" stroke-linejoin="round" stroke-width="2.168"/>
          </g>
          <g id="g3566" transform="translate(32.638 -25.243)">
            <path id="path3568" d="M0,0H1.322" fill="none" stroke="#13a89e" stroke-linecap="round" stroke-linejoin="round" stroke-width="2.168"/>
          </g>
          <g id="g3570" transform="translate(40.04 -25.243)">
            <path id="path3572" d="M0,0H1.322" fill="none" stroke="#13a89e" stroke-linecap="round" stroke-linejoin="round" stroke-width="2.168"/>
          </g>
          <g id="g3574" transform="translate(47.443 -25.243)">
            <path id="path3576" d="M0,0H1.322" fill="none" stroke="#13a89e" stroke-linecap="round" stroke-linejoin="round" stroke-width="2.168"/>
          </g>
          <g id="g3578" transform="translate(54.846 -25.243)">
            <path id="path3580" d="M0,0H1.322" fill="none" stroke="#13a89e" stroke-linecap="round" stroke-linejoin="round" stroke-width="2.168"/>
          </g>
          <g id="g3582" transform="translate(62.248 -25.243)">
            <path id="path3584" d="M0,0H1.322" fill="none" stroke="#13a89e" stroke-linecap="round" stroke-linejoin="round" stroke-width="2.168"/>
          </g>
          <g id="g3586" transform="translate(69.651 -25.243)">
            <path id="path3588" d="M0,0H1.322" fill="none" stroke="#13a89e" stroke-linecap="round" stroke-linejoin="round" stroke-width="2.168"/>
          </g>
          <g id="g3590" transform="translate(6.728 -19.058)">
            <path id="path3592" d="M0,0H1.322" fill="none" stroke="#13a89e" stroke-linecap="round" stroke-linejoin="round" stroke-width="2.168"/>
          </g>
          <g id="g3594" transform="translate(14.131 -19.058)">
            <path id="path3596" d="M0,0H1.322" fill="none" stroke="#13a89e" stroke-linecap="round" stroke-linejoin="round" stroke-width="2.168"/>
          </g>
          <g id="g3598" transform="translate(21.534 -19.058)">
            <path id="path3600" d="M0,0H1.322" fill="none" stroke="#13a89e" stroke-linecap="round" stroke-linejoin="round" stroke-width="2.168"/>
          </g>
          <g id="g3602" transform="translate(28.936 -19.058)">
            <path id="path3604" d="M0,0H1.322" fill="none" stroke="#13a89e" stroke-linecap="round" stroke-linejoin="round" stroke-width="2.168"/>
          </g>
          <g id="g3606" transform="translate(36.339 -19.058)">
            <path id="path3608" d="M0,0H1.322" fill="none" stroke="#13a89e" stroke-linecap="round" stroke-linejoin="round" stroke-width="2.168"/>
          </g>
          <g id="g3610" transform="translate(43.742 -19.058)">
            <path id="path3612" d="M0,0H1.322" fill="none" stroke="#13a89e" stroke-linecap="round" stroke-linejoin="round" stroke-width="2.168"/>
          </g>
          <g id="g3614" transform="translate(51.144 -19.058)">
            <path id="path3616" d="M0,0H1.322" fill="none" stroke="#13a89e" stroke-linecap="round" stroke-linejoin="round" stroke-width="2.168"/>
          </g>
          <g id="g3618" transform="translate(58.547 -19.058)">
            <path id="path3620" d="M0,0H1.322" fill="none" stroke="#13a89e" stroke-linecap="round" stroke-linejoin="round" stroke-width="2.168"/>
          </g>
          <g id="g3622" transform="translate(65.95 -19.058)">
            <path id="path3624" d="M0,0H1.322" fill="none" stroke="#13a89e" stroke-linecap="round" stroke-linejoin="round" stroke-width="2.168"/>
          </g>
          <g id="g3626" transform="translate(3.027 -12.872)">
            <path id="path3628" d="M0,0H1.322" fill="none" stroke="#13a89e" stroke-linecap="round" stroke-linejoin="round" stroke-width="2.168"/>
          </g>
          <g id="g3630" transform="translate(10.43 -12.872)">
            <path id="path3632" d="M0,0H1.322" fill="none" stroke="#13a89e" stroke-linecap="round" stroke-linejoin="round" stroke-width="2.168"/>
          </g>
          <g id="g3634" transform="translate(17.832 -12.872)">
            <path id="path3636" d="M0,0H1.322" fill="none" stroke="#13a89e" stroke-linecap="round" stroke-linejoin="round" stroke-width="2.168"/>
          </g>
          <g id="g3638" transform="translate(25.235 -12.872)">
            <path id="path3640" d="M0,0H1.322" fill="none" stroke="#13a89e" stroke-linecap="round" stroke-linejoin="round" stroke-width="2.168"/>
          </g>
          <g id="g3642" transform="translate(32.638 -12.872)">
            <path id="path3644" d="M0,0H1.322" fill="none" stroke="#13a89e" stroke-linecap="round" stroke-linejoin="round" stroke-width="2.168"/>
          </g>
          <g id="g3646" transform="translate(40.04 -12.872)">
            <path id="path3648" d="M0,0H1.322" fill="none" stroke="#13a89e" stroke-linecap="round" stroke-linejoin="round" stroke-width="2.168"/>
          </g>
          <g id="g3650" transform="translate(47.443 -12.872)">
            <path id="path3652" d="M0,0H1.322" fill="none" stroke="#13a89e" stroke-linecap="round" stroke-linejoin="round" stroke-width="2.168"/>
          </g>
          <g id="g3654" transform="translate(54.846 -12.872)">
            <path id="path3656" d="M0,0H1.322" fill="none" stroke="#13a89e" stroke-linecap="round" stroke-linejoin="round" stroke-width="2.168"/>
          </g>
          <g id="g3658" transform="translate(62.248 -12.872)">
            <path id="path3660" d="M0,0H1.322" fill="none" stroke="#13a89e" stroke-linecap="round" stroke-linejoin="round" stroke-width="2.168"/>
          </g>
          <g id="g3662" transform="translate(69.651 -12.872)">
            <path id="path3664" d="M0,0H1.322" fill="none" stroke="#13a89e" stroke-linecap="round" stroke-linejoin="round" stroke-width="2.168"/>
          </g>
          <g id="g3666" transform="translate(42.96 -43.764)">
            <path id="path3668" d="M0,0C-.786-5.946-5.96-16.262-5.96-16.262S-11.134-5.946-11.92,0c-.5,3.77,2.035,8.148,5.889,8.259v.005l.071,0,.071,0V8.259C-2.035,8.148.5,3.77,0,0Z" fill="none" stroke="#13a89e" stroke-linecap="round" stroke-linejoin="round" stroke-width="2.168"/>
          </g>
        </g>
      </g>
    </g>
  </g>
</svg>
