<?xml version="1.0" encoding="UTF-8"?>
<svg xmlns="http://www.w3.org/2000/svg" width="335" height="108" viewBox="0 0 335 108" fill="none">
  <path d="M299.861 71.2364C299.624 67.9273 299.742 63.2 299.742 59.1818C299.151 59.1818 298.324 59.1818 297.732 59.1818C290.638 59.1818 287.801 61.5455 287.801 65.8C287.801 70.1727 290.047 71.8273 295.249 71.8273C296.787 71.7091 298.678 71.4727 299.861 71.2364ZM315.585 80.1C306.245 80.1 299.033 81.1636 291.584 81.1636C277.633 81.1636 272.785 75.3727 272.785 65.5636C272.785 55.9909 280.589 50.9091 297.614 50.9091C298.324 50.9091 299.506 50.9091 299.979 50.9091V49.8455C299.979 43.1091 297.851 40.2727 291.111 40.2727C286.264 40.2727 281.18 42.0455 277.751 43.8182L277.16 33.0636C281.062 31.4091 287.564 30.3455 294.777 30.3455C309.674 30.3455 315.349 35.1909 315.349 48.7818C315.349 55.9909 314.876 62.2545 314.876 66.6273C314.876 70.5273 314.876 76.2 315.585 80.1ZM155.854 51.6182C162.357 51.6182 165.549 49.3727 165.549 44.7636C165.549 41.4545 163.303 39.5636 159.756 39.5636C153.607 39.5636 151.361 44.5273 151.361 51.2636V51.5C152.662 51.5 154.317 51.6182 155.854 51.6182ZM111.162 71.2364C110.926 67.9273 111.044 63.2 111.044 59.1818C110.453 59.1818 109.625 59.1818 109.034 59.1818C101.94 59.1818 99.1025 61.5455 99.1025 65.8C99.1025 70.1727 101.349 71.8273 106.551 71.8273C108.088 71.7091 109.98 71.4727 111.162 71.2364ZM157.627 59.7727C155.854 59.7727 152.898 59.7727 151.361 59.6545V60.0091C151.361 66.8636 155.854 71.3545 164.248 71.3545C169.332 71.3545 173.943 69.8182 177.254 67.8091L177.845 78.5636C174.535 80.1 168.15 81.1636 161.765 81.1636C144.74 81.1636 136.464 75.3727 135.045 59.5364C133.153 59.4182 130.198 59.3 126.178 59.3C126.059 62.0182 125.941 64.5 125.941 66.6273C125.941 70.5273 125.941 76.2 126.651 80.1C117.31 80.1 110.098 81.1636 102.649 81.1636C88.6981 81.1636 83.8506 75.3727 83.8506 65.5636C83.8506 55.9909 91.6539 50.9091 108.679 50.9091C109.389 50.9091 110.571 50.9091 111.044 50.9091V49.8455C111.044 43.1091 108.916 40.2727 102.177 40.2727C97.329 40.2727 92.2451 42.0455 88.8163 43.8182L88.2252 33.0636C92.1268 31.4091 98.6296 30.3455 105.842 30.3455C120.739 30.3455 126.414 35.1909 126.414 48.7818C126.414 49.4909 126.414 50.2 126.414 51.0273C130.079 51.0273 132.68 51.1455 135.163 51.2636C136.7 37.9091 143.321 30.4636 159.992 30.4636C173.825 30.4636 180.091 36.2545 180.091 45C180.328 55.0455 172.643 59.7727 157.627 59.7727ZM266.519 57.6455C266.519 53.5091 266.637 48.1909 266.637 48.1909C266.637 36.0182 261.317 30.4636 246.183 30.4636C237.67 30.4636 231.641 32 222.064 32C222.537 40.6273 222.655 51.1455 222.537 57.7636C222.537 64.5 222.3 76.4364 222.064 80.2182H238.38C238.025 76.3182 237.67 65.2091 237.67 57.7636C237.67 53.5091 237.789 48.3091 237.907 41.3364C239.562 40.7455 241.572 40.3909 243.819 40.3909C249.494 40.3909 251.385 43.1091 251.385 50.4364C251.385 50.4364 251.504 55.0455 251.504 57.7636C251.504 64.5 251.267 76.4364 251.031 80.2182H267.347C266.756 76.2 266.519 65.0909 266.519 57.6455ZM215.325 69.3455L216.034 80.1C214.733 80.4545 210.95 81.1636 205.748 81.1636C194.989 81.1636 189.314 76.6727 189.314 65.6818C189.314 57.0545 189.432 47.6 189.55 42.4H183.993C184.111 40.0364 183.993 36.7273 183.993 34.2455C192.388 32.8273 194.989 28.2182 196.171 19H205.393C205.038 22.7818 204.802 28.2182 204.802 31.8818H214.497V42.2818H204.566V61.0727C204.566 68.4 205.984 70.2909 211.068 70.2909C212.605 70.4091 214.379 69.9364 215.325 69.3455ZM322.325 31.8818H323.625L325.162 36.1364L326.581 31.8818H327.882V37.3182H326.936V33.1818L325.399 37.4364H324.571L323.034 33.1818V37.4364H322.088V31.8818H322.325ZM317.95 35.5455C317.95 36.3727 318.541 36.7273 319.369 36.7273C320.196 36.7273 320.551 36.3727 320.551 35.9C320.551 35.4273 320.315 35.3091 320.078 35.1909C319.724 35.0727 319.251 34.9545 318.423 34.7182C317.477 34.4818 317.241 33.8909 317.241 33.3C317.241 32.2364 318.305 31.6455 319.251 31.6455C320.433 31.6455 321.379 32.2364 321.379 33.4182H320.315C320.315 32.7091 319.842 32.4727 319.132 32.4727C318.659 32.4727 318.187 32.5909 318.187 33.1818C318.187 33.5364 318.423 33.7727 318.778 33.8909C318.896 33.8909 320.078 34.2455 320.315 34.3636C321.024 34.6 321.379 35.1909 321.379 35.7818C321.379 36.9636 320.315 37.4364 319.251 37.4364C317.95 37.4364 317.004 36.8455 317.004 35.5455H317.95Z" fill="#7B3D9E"></path>
  <path d="M50.7459 29.7546L41.2873 39.2091L31.8287 29.7546C28.5182 26.4455 23.0796 26.4455 19.6508 29.7546L9.48287 39.9182C6.17238 43.2273 6.17238 48.6636 9.48287 51.9727L41.2873 84L73.0917 51.9727C76.4022 48.6636 76.4022 43.2273 73.0917 39.9182L62.9238 29.7546C59.495 26.4455 54.0564 26.4455 50.7459 29.7546Z" fill="#7B3D9E"></path>
</svg>
