<?xml version="1.0" encoding="UTF-8"?>
<svg xmlns="http://www.w3.org/2000/svg" width="271" height="108" viewBox="0 0 271 108" fill="none">
  <path d="M39.4517 49.2346C41.7497 49.2346 56.6633 55.794 56.6633 79.3554C56.6633 90.6151 52.8576 100 50.6149 100C49.6244 100 49.249 99.0147 49.249 97.1211C49.249 92.9519 50.7237 89.2589 50.7237 80.3611C50.7237 63.18 43.6217 56.2482 40.4422 52.3462C39.5038 51.1912 38.7925 50.44 38.7925 49.7611C38.7925 49.4845 38.9896 49.2346 39.4517 49.2346ZM77.0417 49.7611C77.0417 50.44 76.3304 51.1912 75.392 52.3462C72.214 56.2482 65.1152 63.18 65.1152 80.358C65.1152 89.2573 66.5836 92.9503 66.5836 97.1211C66.5836 99.0147 66.2082 100 65.2209 100C62.9735 100 59.1694 90.6151 59.1694 79.3554C59.1694 55.794 74.0861 49.2346 76.3872 49.2346C76.8461 49.2346 77.0417 49.4845 77.0417 49.7611Z" fill="#0982C6"></path>
  <path d="M52.4728 53.9507C52.4728 57.0277 54.9079 59.5185 57.914 59.5185C60.9295 59.5185 63.3678 57.0277 63.3678 53.9507C63.3678 50.8706 60.9295 48.3829 57.9155 48.3829C54.9079 48.3829 52.4728 50.8706 52.4728 53.9507Z" fill="#F8971F"></path>
  <path d="M29.629 45.1488C26.7823 43.8664 24.6499 41.2955 24.303 38.8015C26.4164 37.4155 29.7552 37.3086 32.6035 38.5925C35.5844 39.9361 36.2831 42.2069 36.3004 44.2043C34.7816 45.5149 32.613 46.4955 29.629 45.1488ZM37.7955 30.1552C35.9629 27.3501 35.5371 23.7985 36.671 21.3454C39.3853 21.3093 42.4671 23.1448 44.2966 25.9467C46.2081 28.8854 45.5189 31.3401 44.3707 33.1552C42.2352 33.4616 39.7071 33.0939 37.7955 30.1552ZM42.0349 45.0105C39.7765 43.1027 38.5068 40.2096 38.8412 37.8445C41.1281 37.131 44.202 37.9011 46.4605 39.8057C48.8262 41.8078 48.864 44.055 48.3578 45.8811C46.6324 46.6747 44.4007 47.0047 42.0349 45.0089M48.9445 37.8303C47.9729 34.6999 48.5202 31.2348 50.2504 29.2186C52.8196 29.9053 55.2326 32.4653 56.2041 35.5957C57.2214 38.8754 55.9076 41.0047 54.3415 42.4112C52.2518 42.1315 49.957 41.11 48.9445 37.8303ZM37.0448 60.6876C34.7958 61.1245 32.4222 60.4818 31.1478 59.135C31.8181 57.4064 33.7848 55.9292 36.037 55.4939C38.3949 55.0381 39.7812 56.102 40.6455 57.2948C40.2906 58.7249 39.4106 60.2272 37.0448 60.6876ZM31.0989 54.0481C28.5361 53.7715 26.2019 52.3038 25.284 50.4337C26.5788 48.8025 29.1795 47.8643 31.744 48.1409C34.4299 48.4316 35.5623 50.0345 36.0938 51.5982C35.2358 53.0172 33.7864 54.3388 31.0989 54.0481ZM30.8702 35.0849C28.8594 33.3846 27.7317 30.8152 28.0298 28.7141C30.0596 28.0761 32.7928 28.7628 34.8037 30.4569C36.9029 32.2358 36.9423 34.2332 36.4912 35.8581C34.9535 36.5653 32.9726 36.8576 30.8702 35.0849ZM44.5726 21.6063C43.7619 18.9976 44.2225 16.1061 45.6608 14.4293C47.8058 15.006 49.8182 17.137 50.6289 19.7425C51.4758 22.4769 50.3781 24.248 49.0706 25.4266C47.3279 25.1909 45.4243 24.3423 44.5742 21.6079M10.9019 89.2982C10.9019 89.3689 10.9476 89.4255 11.0375 89.4255C11.1211 89.4255 11.2725 89.3579 11.4365 89.2997C19.4832 86.4239 31.3639 82.8944 48.0376 81.8195C48.0581 81.6686 48.1559 80.9284 48.1559 80.358C48.1559 79.1558 48.014 77.9017 47.9761 77.6927C30.8908 79.2548 19.0983 84.1908 11.3513 88.9352C11.0359 89.13 10.9019 89.174 10.9019 89.2982ZM79.5382 44.2027C79.5555 42.2069 80.2511 39.9346 83.2319 38.5909C86.0771 37.307 89.4206 37.4123 91.5325 38.8C91.1839 41.2939 89.0547 43.8649 86.2096 45.1456C83.2224 46.4924 81.0554 45.5134 79.5382 44.2027ZM71.4663 33.1536C70.3213 31.3385 69.6289 28.8823 71.5436 25.9436C73.3715 23.1432 76.4517 21.3077 79.1675 21.3439C80.2984 23.7969 79.8694 27.3485 78.043 30.1536C76.1315 33.0923 73.5986 33.46 71.4663 33.1536ZM67.4761 45.8795C66.973 44.0534 67.0108 41.8062 69.3766 39.8041C71.6382 37.8995 74.7073 37.1295 76.9974 37.8445C77.3286 40.2064 76.0605 43.1011 73.8005 45.0073C71.4395 47.0031 69.2015 46.6731 67.4761 45.8795ZM61.4939 42.4112C59.9278 41.0047 58.6156 38.8754 59.6329 35.5941C60.5997 32.4653 63.0238 29.9069 65.5882 29.2186C67.3184 31.2348 67.8656 34.6984 66.8941 37.8303C65.8768 41.11 63.5915 42.1315 61.4939 42.4112ZM75.1947 57.2964C76.059 56.1068 77.439 55.0381 79.8016 55.4954C82.0569 55.9307 84.0189 57.4111 84.6908 59.1366C83.4196 60.4834 81.0428 61.1245 78.7906 60.6892C76.428 60.2288 75.5432 58.7249 75.1947 57.2964ZM79.7448 51.5997C80.2763 50.0361 81.4103 48.4332 84.0962 48.1425C86.659 47.8659 89.2566 48.8072 90.5515 50.4368C89.6351 52.3038 87.2994 53.7731 84.7396 54.0497C82.0506 54.3404 80.598 53.0188 79.7448 51.5997ZM79.3458 35.8597C78.8931 34.2348 78.9294 32.2374 81.0349 30.4569C83.0458 28.7644 85.7774 28.0761 87.8072 28.7157C88.1037 30.8168 86.9761 33.3862 84.9668 35.0849C82.866 36.8607 80.8803 36.5684 79.3458 35.8597ZM66.7648 25.4282C65.4573 24.2495 64.3628 22.4785 65.2113 19.7441C66.0188 17.1385 68.0344 15.0076 70.1683 14.4309C71.6193 16.1092 72.0719 18.9992 71.2644 21.6079C70.4159 24.3423 68.5091 25.1924 66.7648 25.4282ZM104.484 88.9367C96.7402 84.1924 84.9478 79.2564 67.8609 77.6943C67.7469 78.5783 67.6868 79.4683 67.6811 80.3595C67.6811 80.93 67.7805 81.6702 67.7994 81.821C84.4715 82.8975 96.3491 86.4255 104.402 89.3013C104.568 89.3595 104.722 89.427 104.796 89.427C104.891 89.427 104.938 89.3689 104.938 89.3013C104.938 89.1756 104.796 89.1316 104.484 88.9367ZM57.9169 28.1704C55.7042 27.1442 53.5245 25.2364 53.5245 21.2716C53.5245 17.4843 55.3178 13.8416 57.9185 12.2072C60.5192 13.8416 62.3125 17.4827 62.3125 21.27C62.3125 25.2364 60.136 27.1442 57.9169 28.1704Z" fill="#56B948"></path>
  <path d="M141.364 41.5752C141.364 43.9104 143.295 45.8041 145.686 45.8041C148.07 45.8041 150.004 43.9104 150.004 41.5752C150.004 39.2415 148.07 37.351 145.684 37.351C143.295 37.351 141.364 39.2415 141.364 41.5752ZM175.093 63.8322C175.093 70.5063 172.475 73.2863 168.687 73.2863C164.865 73.2863 162.725 70.0553 162.725 64.3885C162.725 58.6054 166.045 53.825 172.195 53.825C173.463 53.825 174.349 53.9507 175.093 54.1298V63.8322ZM175.462 74.7792V76.9478C175.462 82.8959 171.786 85.206 167.223 85.206C163.123 85.206 160.098 83.9755 159.14 83.644V89.5292C159.92 89.7382 163.25 90.7817 168.002 90.7817C176.44 90.7817 182.079 87.3118 182.079 75.4188V49.7532C180.997 49.4798 177.035 48.4332 172.474 48.4332C160.637 48.4332 155.551 56.3378 155.551 64.8898C155.551 72.752 159.52 78.9154 167.124 78.9154C172.138 78.9154 174.548 75.8981 175.331 74.7792H175.462ZM135.213 71.1491C133.313 72.0369 130.272 72.6215 127.329 72.6215C119.305 72.6215 113.395 66.9013 113.395 58.1858C113.395 49.5285 119.264 43.7407 127.329 43.7407C131.327 43.7407 134.172 44.715 135.215 45.2085V38.9791C133.46 38.3301 130.613 37.6748 126.588 37.6748C114.136 37.6748 105.765 46.2551 105.765 58.189C105.765 69.4676 113.467 78.6906 126.589 78.6906C130.438 78.6906 133.333 78.0825 135.213 77.3816V71.1491ZM240.894 63.8322C240.894 70.5063 238.273 73.2863 234.486 73.2863C230.663 73.2863 228.51 70.0553 228.51 64.3885C228.51 58.6054 231.847 53.825 237.992 53.825C238.968 53.8095 239.943 53.9118 240.894 54.1298V63.8322ZM248.758 78.2648C248.532 76.6398 247.879 72.3497 247.879 68.6567V49.7532C246.786 49.4798 242.823 48.4332 238.273 48.4332C226.43 48.4332 221.35 56.3378 221.35 64.8898C221.35 72.752 225.307 78.9154 232.917 78.9154C238.475 78.9154 240.963 75.3355 241.903 73.4261H242.086C242.157 74.3329 242.406 77.413 242.49 78.2663H248.761L248.758 78.2648ZM149.181 49.1781H142.197V78.2632H149.181V49.1781ZM189.985 78.2632V58.1387C189.985 55.4405 189.739 50.2655 189.668 49.0916H195.942L196.237 53.1822H196.368C197.096 52.0382 199.445 48.4332 204.919 48.4332C211.529 48.4332 215.202 53.2734 215.202 59.3047V78.2648H208.223V60.6798C208.223 56.9758 206.157 54.177 202.599 54.177C198.931 54.177 196.975 57.1314 196.975 60.6798V78.2632H189.985ZM259.006 73.2659C258.828 73.1637 258.536 73.1166 258.143 73.1166H257.533V74.5718H258.178C258.408 74.5832 258.639 74.554 258.859 74.4853C259.137 74.3753 259.277 74.1663 259.277 73.8536C259.277 73.5613 259.187 73.3664 259.006 73.2659ZM258.236 72.6325C258.738 72.6325 259.109 72.6797 259.34 72.774C259.761 72.9531 259.968 73.2879 259.968 73.7954C259.968 74.1569 259.837 74.4272 259.575 74.5922C259.396 74.6966 259.198 74.7629 258.992 74.787C259.269 74.8153 259.522 74.9599 259.687 75.1846C259.822 75.3649 259.899 75.5821 259.907 75.8069V76.1024C259.907 76.1967 259.907 76.2957 259.913 76.401C259.913 76.4733 259.927 76.5455 259.951 76.6131L259.973 76.6603H259.307L259.298 76.621C259.296 76.6084 259.288 76.5927 259.288 76.5754L259.274 76.4481V76.1291C259.274 75.6639 259.143 75.3544 258.892 75.2051C258.739 75.1234 258.474 75.0731 258.099 75.0731H257.536V76.6603H256.823V72.6325H258.24H258.236ZM256.066 72.4282C255.768 72.7181 255.533 73.0656 255.375 73.4494C255.217 73.8331 255.139 74.245 255.147 74.6598C255.147 75.5398 255.453 76.2941 256.066 76.9117C256.65 77.5199 257.465 77.8577 258.31 77.8436C259.189 77.8436 259.94 77.5324 260.556 76.9117C261.167 76.2957 261.476 75.5398 261.476 74.6645C261.476 73.7876 261.167 73.0427 260.556 72.4267C260.266 72.1269 259.916 71.8896 259.53 71.7296C259.144 71.5696 258.729 71.4902 258.31 71.4964C257.893 71.4895 257.478 71.5686 257.092 71.7287C256.706 71.8887 256.357 72.1263 256.068 72.4267L256.066 72.4282ZM260.918 77.2621C260.581 77.6107 260.175 77.8865 259.727 78.0722C259.278 78.2579 258.796 78.3497 258.31 78.3418C257.825 78.3499 257.343 78.2583 256.895 78.0725C256.447 77.8868 256.041 77.6109 255.705 77.2621C255.358 76.9233 255.084 76.5177 254.9 76.07C254.716 75.6224 254.625 75.142 254.633 74.6582C254.633 73.6462 254.997 72.7818 255.711 72.0652C256.048 71.7194 256.453 71.4458 256.9 71.2615C257.347 71.0772 257.827 70.986 258.31 70.9935C258.795 70.9851 259.277 71.0759 259.725 71.2602C260.174 71.4446 260.58 71.7185 260.918 72.0652C261.64 72.7771 261.999 73.643 261.999 74.6566C262.007 75.1415 261.915 75.6229 261.729 76.071C261.543 76.5191 261.267 76.9245 260.918 77.2621Z" fill="#0982C6"></path>
</svg>
