<?xml version="1.0" encoding="UTF-8"?>
<svg xmlns="http://www.w3.org/2000/svg" width="94" height="94" viewBox="0 0 94 94" fill="none">
  <mask id="mask0_414_62" style="mask-type:alpha" maskUnits="userSpaceOnUse" x="0" y="0" width="94" height="94">
    <rect width="94" height="94" fill="white"></rect>
  </mask>
  <g mask="url(#mask0_414_62)">
    <path fill-rule="evenodd" clip-rule="evenodd" d="M23.8241 13.8677C22.1524 13.8677 20.5457 14.5392 19.3583 15.7402C18.1704 16.9418 17.5 18.5751 17.5 20.2817V75.68C17.5 77.3866 18.1704 79.0199 19.3583 80.2215C20.5457 81.4225 22.1524 82.094 23.8241 82.094H70.7687C72.4404 82.094 74.0471 81.4225 75.2345 80.2215C76.4224 79.0199 77.0928 77.3866 77.0928 75.68V20.2817C77.0928 18.5751 76.4224 16.9418 75.2345 15.7402C74.0471 14.5392 72.4404 13.8677 70.7687 13.8677H64.5634C63.735 13.8677 63.0634 13.1961 63.0634 12.3677C63.0634 11.5392 63.735 10.8677 64.5634 10.8677H70.7687C73.2472 10.8677 75.6207 11.8637 77.3679 13.6311C79.1146 15.3978 80.0928 17.7905 80.0928 20.2817V75.68C80.0928 78.1712 79.1146 80.5639 77.3679 82.3306C75.6207 84.098 73.2472 85.094 70.7687 85.094H23.8241C21.3456 85.094 18.9722 84.098 17.2249 82.3306C15.4782 80.5639 14.5 78.1712 14.5 75.68V20.2817C14.5 17.7905 15.4782 15.3978 17.2249 13.6311C18.9722 11.8637 21.3456 10.8677 23.8241 10.8677H30.0294C30.8579 10.8677 31.5294 11.5392 31.5294 12.3677C31.5294 13.1961 30.8579 13.8677 30.0294 13.8677H23.8241Z" fill="#1C76CA"></path>
    <path fill-rule="evenodd" clip-rule="evenodd" d="M35.1563 7.39258C33.6505 7.39258 32.6094 8.50789 32.6094 9.66973V17.224C32.6094 18.3859 33.6505 19.5012 35.1563 19.5012H59.438C60.9438 19.5012 61.985 18.3859 61.985 17.224V9.66973C61.985 8.50789 60.9438 7.39258 59.438 7.39258H35.1563ZM29.6094 9.66973C29.6094 6.65945 32.192 4.39258 35.1563 4.39258H59.438C62.4024 4.39258 64.985 6.65945 64.985 9.66973V17.224C64.985 20.2343 62.4024 22.5012 59.438 22.5012H35.1563C32.192 22.5012 29.6094 20.2343 29.6094 17.224V9.66973Z" fill="#1C76CA"></path>
    <path fill-rule="evenodd" clip-rule="evenodd" d="M27.6289 34.793V43.9016H66.9548V34.793H27.6289ZM26.6289 31.793C25.5243 31.793 24.6289 32.6884 24.6289 33.793V44.9016C24.6289 46.0062 25.5243 46.9016 26.6289 46.9016H67.9548C69.0593 46.9016 69.9548 46.0062 69.9548 44.9016V33.793C69.9548 32.6884 69.0593 31.793 67.9548 31.793H26.6289Z" fill="#1C76CA"></path>
    <path fill-rule="evenodd" clip-rule="evenodd" d="M27.6289 58.5352V67.6438H66.9548V58.5352H27.6289ZM26.6289 55.5352C25.5243 55.5352 24.6289 56.4306 24.6289 57.5352V68.6438C24.6289 69.7483 25.5243 70.6438 26.6289 70.6438H67.9548C69.0593 70.6438 69.9548 69.7483 69.9548 68.6438V57.5352C69.9548 56.4306 69.0593 55.5352 67.9548 55.5352H26.6289Z" fill="#1C76CA"></path>
  </g>
</svg>
