<?xml version="1.0" encoding="UTF-8"?>
<svg xmlns="http://www.w3.org/2000/svg" width="370" height="108" viewBox="0 0 370 108" fill="none">
  <path d="M66.9059 20.2327C68.7706 19.7781 70.8067 19.9859 72.5088 20.8887C74.8657 22.0924 76.5332 24.5604 76.7153 27.206C77.0297 30.2543 75.3558 33.361 72.6541 34.805C70.7308 35.8593 68.3608 36.0693 66.2857 35.3484C63.8551 34.5452 61.9014 32.469 61.2314 30.0031C60.4422 27.2363 61.303 24.0733 63.4344 22.1249C64.4058 21.2156 65.6136 20.5575 66.9059 20.2327Z" fill="#009A49"></path>
  <path d="M65.3945 38.3901C66.8798 38.3533 68.3629 38.3901 69.8482 38.3771C71.0885 38.3598 72.4068 38.2884 73.53 38.914C75.7026 40.0701 76.8084 42.6009 76.8366 44.9781C76.8366 54.7939 76.8366 64.6076 76.8366 74.4235C76.8822 76.0819 76.8518 77.8138 76.0907 79.3315C75.2906 81.0894 73.6037 82.5767 71.6023 82.6395C69.6422 82.6655 67.6821 82.6417 65.7219 82.6525C64.0892 82.7066 62.5302 81.806 61.5891 80.5049C60.6155 79.1994 60.1494 77.5627 60.1407 75.9455C60.1385 65.7659 60.145 55.5863 60.1385 45.4067C60.1082 43.8566 60.4594 42.274 61.2964 40.9556C62.1746 39.5397 63.6859 38.4442 65.3945 38.3901Z" fill="#009A49"></path>
  <path d="M32.6509 32.5578C36.0009 31.655 39.7868 33.283 41.4564 36.3096C42.8744 38.7712 42.8094 42.0056 41.2829 44.4044C39.7564 46.8811 36.7771 48.3619 33.876 48.0653C31.1894 47.8639 28.6829 46.158 27.5055 43.7397C26.5883 41.919 26.4387 39.7411 27.048 37.8013C27.8502 35.2488 30.0402 33.1813 32.6509 32.5578Z" fill="#96BF0D"></path>
  <path d="M43.4839 46.1536C44.1994 45.3699 45.1339 44.7659 46.1942 44.5862C48.4818 44.1511 50.8344 45.1448 52.4476 46.7512C54.4772 48.7646 56.498 50.7866 58.5167 52.8109C58.5102 60.6718 58.5145 68.5349 58.5145 76.3958C52.5192 70.4205 46.5347 64.4301 40.5371 58.4549C39.2708 57.1754 38.4295 55.4413 38.3493 53.6335C38.2886 52.2956 38.7244 50.91 39.685 49.9531C40.9469 48.6823 42.2241 47.4266 43.4839 46.1536Z" fill="#96BF0D"></path>
  <path d="M183.734 38.704C185.957 38.6997 188.179 38.7019 190.402 38.7019C190.402 52.8455 190.402 66.9912 190.402 81.1349C188.179 81.1349 185.957 81.137 183.734 81.1327C183.737 66.9891 183.737 52.8476 183.734 38.704Z" fill="#5F6060"></path>
  <path d="M221.409 38.7019C223.631 38.7019 225.854 38.6997 228.076 38.704C228.074 41.1201 228.074 43.5362 228.076 45.9523C225.854 45.9566 223.631 45.9544 221.409 45.9544C221.409 43.5362 221.409 41.1201 221.409 38.7019Z" fill="#5F6060"></path>
  <path d="M88.1099 39.0872C91.217 39.0721 94.3264 39.0851 97.4336 39.0807C102.813 50.2605 108.158 61.4577 113.516 72.6483C118.895 61.4468 124.336 50.2735 129.739 39.0829C132.812 39.0786 135.884 39.0807 138.959 39.0829C138.959 53.0988 138.957 67.1168 138.959 81.1327C136.628 81.137 134.297 81.1349 131.966 81.1349C131.966 70.1867 131.964 59.2386 131.966 48.2883C126.821 59.2429 121.68 70.1975 116.512 81.1414C114.498 81.1154 112.484 81.163 110.469 81.1154C105.365 70.3967 100.222 59.6954 95.1113 48.9811C95.0983 59.6997 95.1092 70.4162 95.1048 81.1349C92.7739 81.1349 90.443 81.137 88.112 81.1327C88.112 67.1168 88.1142 53.1031 88.1099 39.0872Z" fill="#5F6060"></path>
  <path fill-rule="evenodd" clip-rule="evenodd" d="M236.316 39.4618C242.767 39.4574 249.215 39.4596 255.666 39.4596C259.118 39.399 262.804 39.4834 265.844 41.3323C267.589 42.3866 268.958 44.0536 269.647 45.9718C270.469 48.2147 270.595 50.6654 270.319 53.023C270.027 55.504 268.981 57.9699 267.075 59.6391C264.573 61.8777 261.095 62.5661 257.832 62.6224C251.581 62.6289 245.332 62.6224 239.08 62.6246C239.078 68.6691 239.083 74.7115 239.078 80.756C238.157 80.756 237.235 80.756 236.316 80.756C236.314 66.9913 236.316 53.2265 236.316 39.4618ZM239.08 41.8411C239.08 47.9744 239.08 54.1098 239.08 60.2431C245.41 60.2409 251.739 60.2474 258.068 60.2388C260.605 60.1414 263.298 59.5243 265.2 57.7383C266.739 56.3419 267.513 54.2787 267.68 52.2415C267.837 50.2627 267.665 48.206 266.852 46.3745C266.265 45.0365 265.235 43.9042 263.96 43.1898C262.11 42.1355 259.935 41.8844 257.845 41.8411C251.589 41.8411 245.336 41.8411 239.08 41.8411Z" fill="#5F6060"></path>
  <path d="M276.646 39.4618C277.548 39.4574 278.452 39.4574 279.356 39.4618C279.354 53.2265 279.359 66.9913 279.356 80.756C278.45 80.756 277.548 80.756 276.646 80.7538C276.644 66.9913 276.646 53.2265 276.646 39.4618Z" fill="#5F6060"></path>
  <path d="M200.812 40.7044C203.032 40.7066 205.255 40.7044 207.475 40.7044C207.477 43.8068 207.475 46.9113 207.477 50.0137C210.367 50.0159 213.258 50.0137 216.15 50.0137C216.15 51.8171 216.15 53.6205 216.148 55.4261C213.258 55.4261 210.367 55.4261 207.477 55.4261C207.484 61.4663 207.46 67.5087 207.49 73.5489C207.423 74.64 208.045 75.7376 209.119 76.0732C211.397 76.8331 213.839 76.3373 216.148 75.9779C216.146 77.8983 216.159 79.8186 216.139 81.7389C214.511 82.0225 212.861 82.161 211.211 82.1719C208.869 82.2823 206.386 82.2671 204.259 81.1587C202.778 80.4247 201.677 79.0305 201.217 77.4566C200.784 76.0559 200.803 74.5751 200.81 73.1267C200.81 67.2251 200.812 61.3256 200.807 55.4261C198.73 55.4261 196.653 55.4261 194.576 55.4261C194.576 53.6205 194.576 51.8171 194.576 50.0137C196.653 50.0137 198.73 50.0159 200.81 50.0137C200.812 46.9113 200.807 43.8068 200.812 40.7044Z" fill="#5F6060"></path>
  <path d="M144.488 50.0137C146.711 50.0137 148.931 50.0159 151.153 50.0137C151.158 56.7814 151.153 63.5512 151.156 70.3188C151.171 72.0464 151.873 73.8498 153.313 74.8782C154.991 76.123 157.153 76.3828 159.183 76.4586C161.967 76.543 164.929 75.7441 166.921 73.7113C168.381 72.2586 169.122 70.1976 169.15 68.1603C169.157 62.1115 169.148 56.0626 169.155 50.0137C171.375 50.0159 173.598 50.0137 175.82 50.0137C175.82 60.3882 175.818 70.7604 175.82 81.1327C173.598 81.137 171.375 81.1349 169.153 81.1349C169.153 79.8922 169.148 78.6473 169.155 77.4047C166.761 80.3988 162.938 81.8883 159.187 82.1372C155.95 82.3494 152.55 82.0138 149.644 80.4767C147.227 79.2059 145.401 76.8699 144.813 74.2005C144.358 72.5032 144.51 70.7409 144.488 69.0068C144.488 62.6765 144.488 56.3462 144.488 50.0137Z" fill="#5F6060"></path>
  <path d="M221.411 50.0137C223.631 50.0159 225.854 50.0137 228.076 50.0137C228.076 60.3882 228.074 70.7604 228.076 81.1327C225.854 81.137 223.631 81.1349 221.409 81.1349C221.409 70.7604 221.407 60.3882 221.411 50.0137Z" fill="#5F6060"></path>
  <path fill-rule="evenodd" clip-rule="evenodd" d="M299.307 50.2475C302.479 50.1826 305.712 50.1848 308.791 51.0637C310.522 51.5573 312.224 52.445 313.31 53.9215C314.481 55.4391 314.737 57.4157 314.748 59.2754C314.763 64.7549 314.752 70.2365 314.752 75.716C314.763 76.5755 314.659 77.5086 315.112 78.2836C315.407 78.7945 316.04 78.9461 316.593 78.9634C317.517 78.9656 318.427 78.7556 319.31 78.4915C319.306 79.286 319.31 80.0849 319.299 80.8816C317.894 81.2907 316.407 81.4055 314.956 81.2366C314.002 81.0981 313.135 80.4551 312.816 79.5371C312.274 78.0195 312.389 76.3741 312.365 74.7894C310.912 77.4783 308.405 79.5155 305.526 80.5113C303.106 81.3925 300.508 81.6696 297.948 81.6804C295.597 81.6501 293.197 81.4185 291.013 80.4962C289.329 79.7926 287.809 78.5824 286.959 76.9457C286.057 75.2462 285.89 73.2609 286.078 71.3731C286.287 69.4983 287.269 67.7057 288.802 66.5864C290.883 65.0298 293.514 64.4648 296.053 64.205C300.005 63.917 303.96 63.6767 307.915 63.3974C309.01 63.2784 310.244 63.2156 311.107 62.4384C312.029 61.4901 312.011 60.0656 311.998 58.8337C311.985 57.2187 311.326 55.5625 310.006 54.5774C308.382 53.3542 306.311 52.9516 304.333 52.7264C301.788 52.4926 299.203 52.4709 296.684 52.9299C295.103 53.2352 293.494 53.8045 292.345 54.9758C290.896 56.3592 290.359 58.3834 290.038 60.2951C289.129 60.2972 288.225 60.2951 287.321 60.3016C287.575 58.4722 287.987 56.6255 288.923 55.0126C289.808 53.4084 291.278 52.1657 292.965 51.4642C294.966 50.6221 297.152 50.3536 299.307 50.2475ZM305.016 65.9434C302.081 66.1556 299.14 66.3288 296.209 66.5691C294.155 66.8072 291.959 67.1948 290.352 68.5955C289.179 69.5978 288.678 71.1848 288.724 72.6916C288.691 74.3174 289.283 75.9974 290.517 77.0972C291.883 78.3486 293.739 78.8811 295.539 79.1258C298.761 79.5415 302.096 79.234 305.155 78.1256C308.152 77.0648 311.057 74.8543 311.786 71.6134C312.254 69.1778 311.957 66.6773 312.046 64.2136C310.095 65.8395 307.406 65.7507 305.016 65.9434Z" fill="#5F6060"></path>
  <path d="M333.25 51.1633C335.813 50.1956 338.601 50.109 341.305 50.2908C343.36 50.4619 345.431 50.871 347.292 51.7912C349.063 52.6593 350.59 54.0817 351.461 55.8634C352.324 57.5846 352.617 59.5352 352.647 61.4447C352.641 67.881 352.647 74.3174 352.645 80.7538C351.739 80.756 350.837 80.756 349.935 80.756C349.93 74.4538 349.939 68.1517 349.93 61.8495C349.854 59.6239 349.408 57.2468 347.888 55.5279C346.463 53.8738 344.297 53.1009 342.19 52.7935C338.636 52.2977 334.804 52.5186 331.623 54.3241C328.464 56.0691 326.5 59.5936 326.467 63.1744C326.456 69.035 326.467 74.8955 326.461 80.756C325.556 80.756 324.654 80.756 323.752 80.756C323.752 70.8882 323.752 61.0182 323.752 51.1503C324.654 51.1503 325.556 51.1482 326.463 51.1503C326.465 53.1291 326.458 55.1057 326.465 57.0845C327.913 54.3739 330.346 52.2068 333.25 51.1633Z" fill="#5F6060"></path>
  <path fill-rule="evenodd" clip-rule="evenodd" d="M359.796 73.393C361.193 73.0618 362.767 73.4774 363.751 74.5404C364.844 75.6251 365.185 77.3289 364.749 78.7859C364.283 80.3988 362.752 81.6306 361.067 81.7194C358.929 81.9207 356.819 80.2299 356.629 78.0801C356.282 76.0061 357.728 73.826 359.796 73.393ZM359.84 74.1291C358.357 74.5837 357.344 76.136 357.461 77.6709C357.448 79.5977 359.322 81.3124 361.256 80.9876C363.012 80.7495 364.278 78.9547 364.085 77.2249C364.04 75.1747 361.843 73.4341 359.84 74.1291Z" fill="#5F6060"></path>
  <path fill-rule="evenodd" clip-rule="evenodd" d="M359.205 75.2311C360.165 75.138 361.271 74.928 362.117 75.532C362.732 76.123 362.52 77.2531 361.731 77.593C362.427 78.1819 362.355 79.1496 362.607 79.9528C362.307 79.9442 362.015 79.9355 361.726 79.929C361.588 79.3834 361.538 78.8076 361.308 78.2945C361.03 77.8636 360.449 77.9849 360.022 77.9178C360.013 78.5911 360.013 79.2665 360.018 79.942C359.742 79.942 359.469 79.942 359.205 79.9442C359.205 78.3724 359.202 76.8006 359.205 75.2311ZM360.018 75.7636C360.013 76.2767 360.016 76.7898 360.02 77.3029C360.501 77.2661 361.1 77.4047 361.468 76.9933C361.72 76.7227 361.674 76.2767 361.403 76.0386C361.024 75.6922 360.48 75.7983 360.018 75.7636Z" fill="#5F6060"></path>
  <path d="M32.2827 67.6602C33.6249 66.5431 35.3768 65.9932 37.1093 65.9802C40.0083 65.9802 42.9052 65.9802 45.8042 65.9802C50.2016 70.3816 54.6206 74.7634 59.007 79.1756C59.638 80.4334 60.3102 81.7064 61.3965 82.646C53.2979 82.6568 45.1971 82.646 37.0985 82.6503C35.418 82.6352 33.7224 82.1156 32.3998 81.0656C31.2354 80.1585 30.4223 78.7448 30.4353 77.2488C30.4353 75.296 30.4353 73.3432 30.4353 71.3926C30.4201 69.9421 31.1768 68.5673 32.2827 67.6602Z" fill="#009CDA"></path>
  <path d="M17.9046 66.3201C19.6327 65.8915 21.5148 66.0105 23.1432 66.7553C25.5956 67.8248 27.4126 70.2322 27.7357 72.8886C28.1563 75.7528 26.8488 78.7837 24.455 80.4204C22.0135 82.1762 18.5551 82.3148 15.964 80.8036C13.0975 79.1951 11.4821 75.6943 12.1499 72.4751C12.6703 69.5437 15.0099 67.0367 17.9046 66.3201Z" fill="#009CDA"></path>
</svg>
